<svg width="59" height="59" viewBox="0 0 59 59" fill="none" xmlns="http://www.w3.org/2000/svg">
<path d="M29.4998 4.9165C26.2715 4.9165 23.0748 5.55237 20.0922 6.7878C17.1096 8.02323 14.3996 9.83402 12.1168 12.1168C7.50653 16.7271 4.9165 22.9799 4.9165 29.4998C4.9165 40.3657 11.9719 49.5844 21.7315 52.854C22.9607 53.0507 23.354 52.2886 23.354 51.6248V47.4703C16.5444 48.9453 15.094 44.1761 15.094 44.1761C13.9632 41.3244 12.3653 40.5623 12.3653 40.5623C10.1282 39.0382 12.5373 39.0873 12.5373 39.0873C14.9957 39.2594 16.2986 41.6194 16.2986 41.6194C18.4373 45.3561 22.0511 44.2498 23.4523 43.6598C23.6736 42.0619 24.3128 40.9803 25.0011 40.3657C19.5436 39.7511 13.8157 37.6369 13.8157 28.2707C13.8157 25.5419 14.7498 23.354 16.3478 21.6086C16.1019 20.994 15.2415 18.4373 16.5936 15.1186C16.5936 15.1186 18.6586 14.4548 23.354 17.6261C25.2961 17.0853 27.4103 16.8148 29.4998 16.8148C31.5894 16.8148 33.7036 17.0853 35.6457 17.6261C40.3411 14.4548 42.4061 15.1186 42.4061 15.1186C43.7582 18.4373 42.8978 20.994 42.6519 21.6086C44.2498 23.354 45.184 25.5419 45.184 28.2707C45.184 37.6615 39.4315 39.7265 33.9494 40.3411C34.8344 41.1032 35.6457 42.6028 35.6457 44.889V51.6248C35.6457 52.2886 36.039 53.0753 37.2928 52.854C47.0523 49.5598 54.0832 40.3657 54.0832 29.4998C54.0832 26.2715 53.4473 23.0748 52.2119 20.0922C50.9764 17.1096 49.1656 14.3996 46.8829 12.1168C44.6001 9.83402 41.8901 8.02323 38.9075 6.7878C35.9249 5.55237 32.7282 4.9165 29.4998 4.9165Z" fill="#ECEEF6"/>
</svg>
