<svg width="63" height="63" viewBox="0 0 63 63" fill="none" xmlns="http://www.w3.org/2000/svg">
<path d="M49.875 7.875C51.2674 7.875 52.6027 8.42812 53.5873 9.41269C54.5719 10.3973 55.125 11.7326 55.125 13.125V49.875C55.125 51.2674 54.5719 52.6027 53.5873 53.5873C52.6027 54.5719 51.2674 55.125 49.875 55.125H13.125C11.7326 55.125 10.3973 54.5719 9.41269 53.5873C8.42812 52.6027 7.875 51.2674 7.875 49.875V13.125C7.875 11.7326 8.42812 10.3973 9.41269 9.41269C10.3973 8.42812 11.7326 7.875 13.125 7.875H49.875ZM48.5625 48.5625V34.65C48.5625 32.3804 47.6609 30.2038 46.0561 28.5989C44.4512 26.9941 42.2746 26.0925 40.005 26.0925C37.7737 26.0925 35.175 27.4575 33.915 29.505V26.5912H26.5912V48.5625H33.915V35.6213C33.915 33.6 35.5425 31.9463 37.5638 31.9463C38.5384 31.9463 39.4732 32.3334 40.1624 33.0226C40.8516 33.7118 41.2388 34.6466 41.2388 35.6213V48.5625H48.5625ZM18.06 22.47C19.2296 22.47 20.3513 22.0054 21.1783 21.1783C22.0054 20.3513 22.47 19.2296 22.47 18.06C22.47 15.6188 20.5013 13.6238 18.06 13.6238C16.8834 13.6238 15.7551 14.0911 14.9231 14.9231C14.0911 15.7551 13.6238 16.8834 13.6238 18.06C13.6238 20.5013 15.6188 22.47 18.06 22.47ZM21.7088 48.5625V26.5912H14.4375V48.5625H21.7088Z" fill="#ECEEF6"/>
</svg>
