<svg width="58" height="58" viewBox="0 0 58 58" fill="none" xmlns="http://www.w3.org/2000/svg">
<path d="M54.2783 14.4998C52.4175 15.3457 50.4117 15.9015 48.3333 16.1673C50.46 14.8865 52.1033 12.8565 52.8767 10.4157C50.8708 11.624 48.6475 12.4698 46.3033 12.9532C44.3942 10.8748 41.7117 9.6665 38.6667 9.6665C32.9875 9.6665 28.3475 14.3065 28.3475 20.034C28.3475 20.8557 28.4442 21.6532 28.6133 22.4023C20.01 21.9673 12.3492 17.8348 7.25001 11.5757C6.35585 13.0982 5.84835 14.8865 5.84835 16.7715C5.84835 20.3723 7.66085 23.5623 10.4642 25.3748C8.74835 25.3748 7.15335 24.8915 5.75168 24.1665V24.239C5.75168 29.2657 9.32835 33.4707 14.065 34.4132C12.5443 34.8293 10.9477 34.8872 9.40085 34.5823C10.0572 36.6425 11.3427 38.4452 13.0766 39.7369C14.8105 41.0287 16.9057 41.7446 19.0675 41.784C15.403 44.6851 10.8605 46.2532 6.18668 46.2307C5.36501 46.2307 4.54335 46.1823 3.72168 46.0857C8.31335 49.034 13.775 50.7498 19.6233 50.7498C38.6667 50.7498 49.1309 34.9448 49.1309 21.2423C49.1309 20.7832 49.1308 20.3482 49.1067 19.889C51.1367 18.439 52.8767 16.6023 54.2783 14.4998Z" fill="#ECEEF6"/>
</svg>
