<svg width="19" height="19" viewBox="0 0 19 19" fill="none" xmlns="http://www.w3.org/2000/svg">
<path d="M7.61111 4.05345C7.61111 4.86328 7.36235 5.63993 6.91956 6.21257C6.47676 6.7852 5.87621 7.1069 5.25 7.1069C4.62379 7.1069 4.02324 6.7852 3.58044 6.21257C3.13765 5.63993 2.88889 4.86328 2.88889 4.05345C2.88889 3.24363 3.13765 2.46697 3.58044 1.89434C4.02324 1.3217 4.62379 1 5.25 1C5.87621 1 6.47676 1.3217 6.91956 1.89434C7.36235 2.46697 7.61111 3.24363 7.61111 4.05345ZM7.61111 4.05345L7.81039 3.92398C8.33499 3.58474 8.91347 3.40812 9.5 3.40812C10.0865 3.40812 10.665 3.58474 11.1896 3.92398L11.3889 4.05345M11.3889 4.05345C11.3889 4.86328 11.6376 5.63993 12.0804 6.21257C12.5232 6.7852 13.1238 7.1069 13.75 7.1069C14.3762 7.1069 14.9768 6.7852 15.4196 6.21257C15.8624 5.63993 16.1111 4.86328 16.1111 4.05345C16.1111 3.24363 15.8624 2.46697 15.4196 1.89434C14.9768 1.3217 14.3762 1 13.75 1C13.1238 1 12.5232 1.3217 12.0804 1.89434C11.6376 2.46697 11.3889 3.24363 11.3889 4.05345ZM9.5 11.7518C14.2222 8.08767 14.2222 16.0266 18 13.91C17.0556 19.0801 12.3333 19.0801 9.5 15.416C6.66667 19.0801 1.94444 19.0801 1 13.91C4.77778 16.0266 4.77778 8.08767 9.5 11.7518Z" stroke="#ECEEF6" stroke-width="2" stroke-linecap="round" stroke-linejoin="round"/>
</svg>
