<svg width="17" height="17" viewBox="0 0 17 17" fill="none" xmlns="http://www.w3.org/2000/svg">
<path fill-rule="evenodd" clip-rule="evenodd" d="M10.9286 4.25C10.9286 4.8941 10.6727 5.51181 10.2173 5.96726C9.76181 6.42271 9.1441 6.67857 8.5 6.67857C7.8559 6.67857 7.23819 6.42271 6.78274 5.96726C6.3273 5.51181 6.07143 4.8941 6.07143 4.25C6.07143 3.6059 6.3273 2.98819 6.78274 2.53274C7.23819 2.0773 7.8559 1.82143 8.5 1.82143C9.1441 1.82143 9.76181 2.0773 10.2173 2.53274C10.6727 2.98819 10.9286 3.6059 10.9286 4.25ZM12.75 4.25C12.75 5.37717 12.3022 6.45817 11.5052 7.2552C10.7082 8.05223 9.62717 8.5 8.5 8.5C7.37283 8.5 6.29183 8.05223 5.4948 7.2552C4.69777 6.45817 4.25 5.37717 4.25 4.25C4.25 3.12283 4.69777 2.04183 5.4948 1.2448C6.29183 0.447767 7.37283 0 8.5 0C9.62717 0 10.7082 0.447767 11.5052 1.2448C12.3022 2.04183 12.75 3.12283 12.75 4.25ZM1.82143 13.9643C1.82143 13.7166 2.08857 12.9819 3.42429 12.1926C4.66043 11.4629 6.46 10.9286 8.5 10.9286C10.54 10.9286 12.3396 11.4629 13.5757 12.1926C14.9114 12.9819 15.1786 13.7166 15.1786 13.9643C15.1786 14.2863 15.0506 14.5952 14.8229 14.8229C14.5952 15.0506 14.2863 15.1786 13.9643 15.1786H3.03571C2.71367 15.1786 2.40481 15.0506 2.17708 14.8229C1.94936 14.5952 1.82143 14.2863 1.82143 13.9643ZM8.5 9.10714C3.825 9.10714 0 11.5357 0 13.9643C0 14.7694 0.319833 15.5416 0.88914 16.1109C1.45845 16.6802 2.23059 17 3.03571 17H13.9643C14.7694 17 15.5416 16.6802 16.1109 16.1109C16.6802 15.5416 17 14.7694 17 13.9643C17 11.5357 13.175 9.10714 8.5 9.10714Z" fill="white"/>
</svg>
