<svg width="266" height="178" viewBox="0 0 266 178" fill="none" xmlns="http://www.w3.org/2000/svg">
<path d="M157.876 88.7178C157.876 89.374 157.349 89.9108 156.687 89.9101C156.031 89.9094 155.505 89.3771 155.506 88.7153C155.541 57.0041 135.706 28.1957 106.151 17.0256C105.534 16.7987 105.23 16.1139 105.457 15.4976C105.684 14.8756 106.368 14.5709 106.985 14.7978C121.793 20.397 134.459 30.2477 143.603 43.2963C152.962 56.6449 157.894 72.3475 157.876 88.7178Z" fill="#FEA423"/>
<path d="M80.4148 166.305C80.4141 166.961 79.8818 167.498 79.2256 167.497C35.9013 167.45 0.698863 132.035 0.746197 88.5524C0.748241 86.6744 0.823841 84.7795 0.950319 82.913C1.00194 82.2569 1.56814 81.7653 2.21861 81.8113C2.86907 81.8629 3.36059 82.4235 3.31462 83.0852C3.18254 84.8952 3.11832 86.7336 3.11633 88.555C3.07043 130.725 37.2162 165.07 79.2282 165.116C79.8844 165.111 80.4155 165.649 80.4148 166.305Z" fill="#FEA423"/>
<path d="M0.339951 45.7763C0.419046 45.8669 0.52662 45.7765 0.617158 45.7483C0.62282 45.7427 0.628476 45.7427 0.63414 45.737C0.628482 45.737 0.628477 45.7427 0.62282 45.7427C0.673748 45.7258 0.71337 45.7032 0.758642 45.6863C0.747328 45.6863 0.741671 45.6862 0.730352 45.6919C7.51725 41.502 15.9918 40.6571 22.1127 35.1259C22.107 35.1316 22.107 35.1316 22.1014 35.1372C22.1354 35.109 22.158 35.0807 22.192 35.0581C22.1863 35.0638 22.175 35.0694 22.1693 35.0751C25.895 31.7587 28.067 26.7153 32.4593 24.1972C32.4593 24.1972 32.4537 24.1972 32.4537 24.2028C35.1977 23.6911 37.5295 22.5283 39.9915 21.2979C42.4586 20.5595 45.038 20.6076 47.5556 20.2087C34.3125 26.2186 21.8076 34.8314 13.2474 46.7633C13.2587 46.752 13.2644 46.735 13.2757 46.7237C6.72418 52.9333 -2.0359 61.4144 0.600503 71.4409C0.600509 71.4352 0.600515 71.4295 0.594859 71.4295C0.701744 71.9727 0.774671 72.5328 0.870231 73.0872C0.864599 73.0646 0.864617 73.0476 0.858979 73.0307C0.954366 73.7435 1.17988 74.4339 1.31488 75.1354C1.31489 75.1241 1.30924 75.1185 1.30925 75.1071C1.33176 75.2146 1.34861 75.3221 1.37112 75.4296C1.36549 75.407 1.36551 75.39 1.35988 75.3674C1.42749 75.6164 1.39893 75.8652 1.41563 76.1141C1.41564 76.1028 1.41566 76.0859 1.41567 76.0802C1.41558 76.1651 1.4268 76.2499 1.4267 76.3404C1.42671 76.3291 1.42672 76.3178 1.42674 76.3008C1.48264 76.9175 0.699716 79.0322 1.76512 77.2402C1.75946 77.2459 1.75946 77.2459 1.75379 77.2515C1.7708 77.2176 1.79346 77.1837 1.81047 77.1497C1.81047 77.1497 1.81046 77.1554 1.80481 77.1554C1.85016 77.0649 1.8955 76.9858 1.93519 76.901C1.93519 76.901 1.93518 76.9066 1.92952 76.9066C2.92414 72.586 2.26746 67.8564 4.73248 63.8372C6.81246 60.1739 10.3169 57.4116 11.2267 53.1192C13.7566 46.6055 18.3951 41.4403 23.5363 36.8527C21.8511 41.6534 20.6464 46.6526 17.6947 50.9032C14.2391 55.4926 13.0455 60.7181 12.2927 66.306C12.315 66.6681 11.984 69.3603 12.6298 68.4672C16.3268 60.2917 24.853 58.802 25.3118 47.9134C25.3118 47.8852 25.3175 47.8569 25.3175 47.8286L25.3175 47.8342C25.3175 47.8173 25.3175 47.806 25.3176 47.789C25.3175 47.806 25.3175 47.8229 25.3119 47.8399C25.5929 44.2822 24.7142 40.8137 24.8821 37.2784C24.8764 37.318 24.8764 37.3633 24.8707 37.4029C24.8822 37.2162 24.8937 37.0183 24.9052 36.8259C24.9052 36.8429 24.9052 36.8599 24.8995 36.8712C24.9052 36.8316 24.9053 36.7863 24.911 36.7524C24.911 36.775 24.9109 36.792 24.9053 36.8146C28.6361 28.7466 51.8393 18.7313 60.7398 16.3935C52.2455 19.7387 49.3415 26.9308 42.9379 32.3825C42.9435 32.3768 42.9492 32.3712 42.9548 32.3655C42.9322 32.3881 42.9095 32.4107 42.8869 32.4277C42.8926 32.422 42.8982 32.422 42.8982 32.4164C42.8642 32.4503 42.8303 32.4785 42.7963 32.5068C42.8133 32.5011 42.8246 32.4842 42.8359 32.4729C40.0893 35.3717 37.3142 38.395 35.0536 41.7017C33.5175 44.6302 33.214 48.0635 31.4347 50.8842C31.4404 50.8785 31.446 50.8672 31.4517 50.8616C29.2303 54.553 30.5955 52.7783 32.577 51.2022C35.1923 49.4232 37.9827 47.865 40.4682 45.8935C40.4682 45.8935 40.4682 45.8935 40.4625 45.8935C40.4738 45.8822 40.4908 45.8709 40.5021 45.854C40.4965 45.854 40.4965 45.8596 40.4908 45.8596C54.9723 35.0316 46.3298 34.2585 52.2921 23.704L52.2864 23.7097C52.3318 23.6532 52.3714 23.591 52.4224 23.5345C52.4111 23.5514 52.3997 23.5684 52.3884 23.574C52.4167 23.5401 52.4394 23.5062 52.4677 23.4723C52.462 23.4779 52.4564 23.4836 52.4564 23.4836C52.9887 22.9468 53.5436 22.427 54.1155 21.9242C54.0928 21.9468 54.0645 21.9694 54.0362 21.992C54.0815 21.9581 54.1211 21.9185 54.1664 21.879C54.1551 21.8903 54.1438 21.8959 54.1325 21.9072C54.1608 21.8846 54.1891 21.8677 54.2061 21.8451C54.2004 21.8451 54.2004 21.8507 54.1948 21.8507C57.1335 19.1896 60.7611 17.5814 64.304 15.9109C64.2927 15.9166 64.2757 15.9278 64.2644 15.9335C67.4281 14.3927 71.1222 14.1365 74.5902 13.716C74.5845 13.716 74.5732 13.716 74.5676 13.716C74.6072 13.716 74.6355 13.7104 74.6751 13.7048C74.6468 13.7048 74.6242 13.7104 74.5959 13.7104C77.6735 13.3687 80.7735 13.2363 83.862 13.2283C85.955 13.2249 88.0479 13.2781 90.1351 13.3709C92.9463 13.4984 95.7461 13.6881 98.5347 13.8835C99.8978 13.9755 101.255 14.0731 102.607 14.1708C102.856 13.99 102.959 13.2661 102.569 13.1921C102.359 13.1579 101.715 13.0894 101.72 13.0894C100.928 12.9923 97.7158 12.6721 94.3504 12.363C91.6185 12.1167 88.7394 11.9609 87.326 11.3088C87.3542 11.3258 87.3882 11.3372 87.4164 11.3542C82.0902 9.22147 78.4976 4.56213 73.5906 1.802C56.9279 -4.98716 41.2985 10.5799 24.5015 7.59755C24.4054 7.51825 24.2808 7.6765 24.3769 7.75014C24.3882 7.76147 24.3995 7.77279 24.4108 7.78412C24.4108 7.78412 24.4108 7.78412 24.4108 7.77846C29.2389 10.2274 34.5709 12.2526 40.0749 12.236C40.0523 12.236 40.0296 12.2359 40.0014 12.2303C43.9213 12.3363 47.7742 11.7183 51.6607 11.3831C51.6267 11.3831 51.5984 11.3887 51.5701 11.3887C65.9278 10.4483 73.3166 4.14356 87.1272 12.0609C80.0561 12.2399 72.8553 12.1303 65.9861 14.0517C65.9974 14.0517 66.0144 14.0461 66.0257 14.0461C61.6011 14.9746 57.0973 16.0162 52.9039 17.7143C52.9209 17.703 52.9378 17.6974 52.9548 17.6861C48.3083 19.9041 42.9797 19.9492 37.9574 19.2027C26.4649 17.4932 16.547 24.3043 10.4899 33.6086C7.06328 37.6267 3.41042 41.5881 0.339951 45.7763ZM1.87036 74.0952C1.65638 73.2069 1.60647 72.2848 1.44341 71.3852C1.44339 71.3965 1.44903 71.4135 1.44902 71.4248C1.39843 71.1306 1.34784 70.8364 1.28027 70.5478C1.28027 70.5478 1.28027 70.5478 1.28027 70.5535C-0.193332 62.7966 5.10378 55.3186 10.6752 50.4656C8.1544 53.772 4.94378 56.8005 3.63268 60.8549C3.63269 60.8492 3.63269 60.8492 3.63269 60.8436C3.53621 61.1376 3.44539 61.426 3.34891 61.7201C3.35458 61.7087 3.35458 61.7031 3.36025 61.6918C2.798 63.7502 1.90207 65.7517 1.81488 67.9068C1.81489 67.8955 1.8149 67.8841 1.81491 67.8728C1.81489 67.8955 1.81486 67.9181 1.80918 67.9407C1.80919 67.935 1.8092 67.9237 1.80921 67.9181C1.80343 68.0312 1.792 68.133 1.78622 68.2461C1.78625 68.2179 1.79193 68.2009 1.79196 68.1726C1.7689 68.5742 1.75149 68.9702 1.72843 69.3718C1.72844 69.3661 1.72844 69.3604 1.72845 69.3548C1.72842 69.3774 1.72274 69.4 1.72272 69.4227C1.72272 69.417 1.72273 69.4113 1.72273 69.4113C1.68822 69.9317 1.69332 70.4521 1.67011 70.9838C1.67012 70.9725 1.67014 70.9556 1.67581 70.9442C1.67578 70.9669 1.67011 70.9838 1.67008 71.0121C1.67008 71.0065 1.67009 71.0008 1.6701 70.9951C1.54451 72.0415 1.74704 73.0599 1.87036 74.0952ZM9.05044 56.8672C6.28035 60.5297 2.98437 64.0276 2.32301 68.7898C2.6155 65.1189 4.05058 61.4946 5.72849 58.2438C5.70582 58.2777 5.68317 58.306 5.66051 58.3342C7.5021 55.4174 9.92584 52.9424 11.9426 50.1615C10.7524 52.3041 10.2633 54.7529 9.05044 56.8672ZM24.0012 41.1297C24.0068 41.158 24.0124 41.1976 24.0237 41.2315C24.0124 41.1863 24.0068 41.1466 23.9955 41.1014C23.9955 41.1014 23.9955 41.1014 23.9955 41.107C23.9955 41.1014 23.9955 41.0957 23.9955 41.0844C23.9955 41.1014 24.0012 41.1184 24.0012 41.1297ZM23.9055 40.6261C26.3603 51.2463 21.4948 57.1805 14.4107 64.1136C14.5979 63.616 14.7286 63.107 14.9215 62.6094C14.9101 62.6321 14.9044 62.6547 14.8931 62.6773C14.9895 62.4342 15.0859 62.2023 15.1767 61.9649C15.1711 61.9705 15.171 61.9818 15.1654 61.9931C16.0219 59.771 16.528 57.3957 18.1873 55.5931C18.1817 55.5987 18.1817 55.6044 18.1817 55.61C21.9253 51.3829 23.0795 45.9481 23.9 40.53C23.9 40.5639 23.8999 40.5978 23.9055 40.6261ZM17.6505 55.1286C15.0452 58.0616 15.0349 62.3041 13.2099 65.6056C13.6957 55.8371 21.2152 48.9724 23.2561 39.6808C22.345 45.1441 21.2529 50.726 17.6505 55.1286ZM34.1664 46.1469C34.1607 46.1582 34.1607 46.1638 34.1607 46.1695C35.5355 40.718 39.8842 36.7461 43.5936 32.7791C43.5823 32.7904 43.5709 32.8017 43.5596 32.813C43.9616 32.4628 44.3806 32.1238 44.7826 31.7679C44.7713 31.7792 44.7599 31.7905 44.7486 31.7961C44.7599 31.7905 44.7713 31.7792 44.7769 31.7735C42.4537 35.4535 40.3848 39.2921 37.9203 42.8701C37.9429 42.8475 37.9543 42.8136 37.977 42.7853C36.5378 44.9842 34.9912 47.0868 33.2186 49.0307C33.6551 48.1148 33.8542 47.1025 34.1664 46.1469ZM34.7968 49.0155C34.7911 49.0211 34.7855 49.0268 34.7741 49.0324C34.7855 49.0211 34.7911 49.0155 34.7968 49.0155C34.7968 49.0155 34.7968 49.0098 34.7968 49.0155ZM48.0297 36.8115C45.0147 41.9671 39.6032 45.4344 34.893 48.9364C34.8987 48.9308 34.9044 48.9308 34.9044 48.9251C34.242 49.4391 33.5683 49.9305 32.8607 50.371C39.594 43.4433 43.4504 34.4138 49.4716 26.9366C48.4781 30.1541 49.4982 33.6454 48.0297 36.8115ZM69.4611 7.16567C69.4837 7.16004 69.512 7.15441 69.529 7.14877C68.669 7.33451 67.792 7.48063 66.9376 7.70031C66.9433 7.70031 66.9433 7.70031 66.949 7.70032C65.5627 7.99861 64.2611 8.59114 62.8693 8.83852C62.8919 8.83289 62.9145 8.83291 62.9428 8.82163C62.6033 8.90046 62.2582 8.95665 61.9187 9.03547C61.9244 9.03548 61.93 9.03548 61.93 9.02983C61.6641 9.09176 61.3982 9.14804 61.1323 9.20997C61.1606 9.20435 61.1888 9.19872 61.2115 9.19309C60.9569 9.25503 60.7022 9.31132 60.4476 9.36761C60.4759 9.36764 60.4986 9.36201 60.5212 9.35638C60.3854 9.38452 60.2553 9.41831 60.1138 9.4521C60.1364 9.44647 60.1534 9.44083 60.176 9.44085C51.8027 10.8063 43.2768 12.0471 34.8044 10.8613C34.81 10.8613 34.8157 10.8614 34.8214 10.8614C34.7987 10.8613 34.7818 10.8557 34.7591 10.8556C34.7704 10.8556 34.7818 10.8613 34.7874 10.8613C33.0117 10.4238 31.253 9.92412 29.4943 9.42442C32.3052 9.8687 35.207 9.95106 38.0413 9.65434C38.0356 9.65433 38.03 9.65433 38.0243 9.65432C38.1545 9.63749 38.2902 9.62067 38.4203 9.6095C38.4147 9.60949 38.409 9.60948 38.4034 9.60948C38.7258 9.57023 39.0483 9.52533 39.3765 9.48609C39.3482 9.49172 39.3255 9.49169 39.2973 9.49732C42.1258 9.2515 44.8589 8.42861 47.6538 7.99609C47.6368 8.00173 47.6085 8.00169 47.5859 8.00733C47.6198 8.00171 47.6538 8.00174 47.6821 7.99612C47.6764 7.99611 47.6651 7.9961 47.6594 8.00175C47.699 7.99614 47.7386 7.99052 47.7726 7.9849C47.7613 7.98489 47.7443 7.99053 47.7386 7.99052C47.7613 7.98489 47.7895 7.98492 47.8178 7.9793C47.8009 7.97928 47.7895 7.98492 47.7726 7.9849C47.7895 7.98492 47.8122 7.97929 47.8291 7.97931C47.8235 7.9793 47.8235 7.9793 47.8235 7.9793C47.8461 7.97367 47.8744 7.9737 47.9027 7.96808C47.8687 7.97369 47.8348 7.97931 47.8065 7.97928C55.0534 7.29706 62.339 7.50297 69.5969 7.14885C69.546 7.14314 69.5064 7.15441 69.4611 7.16567ZM62.9339 6.6325C54.4041 6.23856 46.0591 7.55879 37.7308 9.09965C37.7364 9.09965 37.7534 9.09402 37.7704 9.09403C37.7421 9.09966 37.7195 9.09964 37.6912 9.10526C37.6968 9.10527 37.7025 9.10527 37.7138 9.09963C34.4156 9.44675 31.0841 9.22251 27.8151 8.73814C34.0317 8.75622 40.1875 7.55805 45.9147 5.09798C45.892 5.10927 45.8581 5.12621 45.8298 5.13749C47.7426 4.34198 49.7626 3.85205 51.6867 3.07353C51.6527 3.0848 51.6244 3.10174 51.5961 3.10737C57.2212 0.946992 63.5227 0.970821 69.4562 1.2884C74.1787 2.00062 77.6083 5.64724 80.9594 8.73942C75.3173 5.71828 69.066 6.362 62.9339 6.6325ZM22.822 33.1412C18.1497 38.2328 11.3875 40.4598 4.999 42.4553C13.0152 36.5584 20.9864 30.5145 29.3867 25.1724C27.1721 27.806 25.0874 30.5529 22.822 33.1412ZM36.6247 22.2785C35.4472 23.0861 34.0441 23.3617 32.6693 23.5922C34.135 23.0337 35.6119 22.5036 37.0663 21.9282C36.9191 22.0469 36.7719 22.1655 36.6247 22.2785ZM7.41301 38.5265C14.7543 29.0766 22.753 18.5243 36.1406 20.0662C36.1293 20.0662 36.1237 20.0605 36.1124 20.0605C36.9437 20.2368 37.7807 20.3734 38.6064 20.5666C25.4564 24.2235 15.3933 34.4398 4.41673 42.1152C5.40796 40.9115 6.51788 39.7926 7.41301 38.5265Z" fill="#FEA423"/>
<path d="M159.805 161.9C159.804 162.042 159.782 162.183 159.731 162.319C159.504 162.935 158.819 163.24 158.202 163.013C143.394 157.413 130.728 147.563 121.584 134.514C112.231 121.171 107.299 105.469 107.316 89.0983C107.317 88.4422 107.844 87.9054 108.506 87.9061C109.162 87.9068 109.693 88.4448 109.692 89.1009C109.658 120.812 129.487 149.62 159.042 160.785C159.517 160.966 159.805 161.419 159.805 161.9Z" fill="#FEA423"/>
<path d="M264.442 89.2693C264.44 91.1473 264.37 93.0422 264.238 94.9088C264.192 95.5649 263.62 96.0564 262.969 96.0104C262.319 95.9588 261.827 95.3983 261.873 94.7365C262.005 92.9265 262.07 91.0882 262.072 89.2667C262.117 47.0964 227.972 12.7516 185.96 12.7058C185.309 12.7051 184.772 12.1728 184.773 11.511C184.774 10.8548 185.306 10.318 185.962 10.3187C229.287 10.3716 264.489 45.7866 264.442 89.2693Z" fill="#FEA423"/>
<path d="M264.853 132.045C264.774 131.949 264.666 132.04 264.576 132.068C264.576 132.073 264.565 132.073 264.559 132.079C264.565 132.079 264.565 132.073 264.57 132.073C264.519 132.09 264.48 132.113 264.434 132.136C264.446 132.13 264.451 132.13 264.463 132.124C257.681 136.314 249.201 137.159 243.08 142.69C243.086 142.685 243.086 142.685 243.092 142.679C243.058 142.707 243.035 142.735 243.001 142.764C243.007 142.758 243.018 142.752 243.024 142.747C239.298 146.063 237.126 151.101 232.734 153.619C232.734 153.619 232.739 153.619 232.739 153.613C230.001 154.125 227.664 155.288 225.202 156.518C222.734 157.257 220.155 157.214 217.643 157.607C230.881 151.598 243.385 142.985 251.946 131.058C251.94 131.064 251.929 131.081 251.917 131.092C258.469 124.883 267.229 116.402 264.593 106.375C264.593 106.381 264.592 106.387 264.598 106.392C264.491 105.843 264.418 105.283 264.323 104.729C264.328 104.752 264.328 104.769 264.334 104.791C264.239 104.078 264.019 103.382 263.878 102.681C263.878 102.692 263.884 102.698 263.884 102.709C263.861 102.601 263.844 102.494 263.822 102.386C263.828 102.409 263.828 102.426 263.833 102.449C263.766 102.2 263.794 101.951 263.777 101.702C263.777 101.713 263.777 101.73 263.777 101.742C263.777 101.657 263.772 101.572 263.772 101.481C263.772 101.487 263.772 101.498 263.772 101.515C263.71 100.899 264.493 98.7896 263.434 100.582C263.434 100.576 263.434 100.57 263.439 100.565C263.422 100.599 263.4 100.632 263.383 100.672C263.383 100.672 263.383 100.666 263.388 100.666C263.343 100.751 263.298 100.83 263.258 100.915C263.258 100.915 263.258 100.909 263.263 100.909C262.269 105.236 262.926 109.965 260.461 113.979C258.381 117.648 254.876 120.405 253.966 124.703L253.966 124.697C251.436 131.211 246.798 136.376 241.657 140.969C243.342 136.163 244.547 131.164 247.498 126.913C250.954 122.324 252.153 117.098 252.9 111.51C252.878 111.148 253.209 108.456 252.563 109.349C248.872 117.524 240.34 119.014 239.881 129.903C239.881 129.931 239.876 129.965 239.876 129.988L239.876 129.982C239.875 129.999 239.875 130.01 239.87 130.027C239.87 130.01 239.87 129.993 239.876 129.976C239.594 133.534 240.473 137.002 240.305 140.538C240.311 140.498 240.311 140.453 240.317 140.413C240.305 140.606 240.294 140.798 240.282 140.99C240.282 140.973 240.282 140.962 240.288 140.945C240.282 140.985 240.282 141.03 240.276 141.064C240.276 141.047 240.276 141.024 240.282 141.002C236.557 149.069 213.354 159.09 204.448 161.423C212.942 158.077 215.846 150.885 222.25 145.434C222.244 145.439 222.238 145.445 222.233 145.451C222.255 145.428 222.278 145.411 222.3 145.388C222.295 145.394 222.289 145.394 222.289 145.4C222.323 145.366 222.363 145.338 222.391 145.309C222.374 145.321 222.363 145.332 222.351 145.343C225.098 142.444 227.873 139.421 230.134 136.12C231.67 133.186 231.973 129.753 233.753 126.932C233.747 126.938 233.741 126.949 233.736 126.955C235.957 123.269 234.592 125.044 232.61 126.614C229.995 128.393 227.205 129.957 224.725 131.928C224.725 131.928 224.725 131.928 224.731 131.928C224.714 131.934 224.697 131.945 224.685 131.962C224.691 131.962 224.691 131.957 224.697 131.957C210.215 142.785 218.858 143.558 212.895 154.112L212.901 154.106C212.856 154.169 212.816 154.225 212.771 154.282C212.776 154.265 212.788 154.253 212.799 154.242C212.771 154.276 212.748 154.31 212.72 154.349C212.725 154.344 212.731 154.338 212.731 154.333C212.199 154.875 211.644 155.389 211.072 155.892C211.095 155.869 211.123 155.847 211.151 155.824C211.106 155.864 211.066 155.898 211.021 155.937C211.032 155.926 211.044 155.92 211.055 155.909C211.027 155.932 211.004 155.954 210.981 155.971C210.987 155.971 210.987 155.965 210.993 155.965C208.054 158.632 204.426 160.24 200.883 161.905C200.9 161.9 200.912 161.888 200.923 161.883C197.759 163.423 194.065 163.68 190.597 164.1C190.603 164.1 190.614 164.1 190.62 164.1C190.58 164.1 190.552 164.106 190.512 164.111C190.541 164.111 190.563 164.106 190.591 164.106C187.514 164.447 184.42 164.586 181.325 164.593C179.232 164.597 177.139 164.538 175.052 164.445C172.241 164.318 169.441 164.134 166.653 163.938C165.29 163.841 163.932 163.743 162.58 163.645C162.331 163.826 162.234 164.55 162.619 164.624C162.828 164.664 163.473 164.727 163.467 164.727C164.259 164.824 167.472 165.144 170.837 165.453C173.575 165.699 176.448 165.855 177.867 166.507C177.833 166.49 177.799 166.479 177.777 166.468C183.097 168.595 186.69 173.254 191.597 176.014C208.26 182.803 223.889 167.236 240.686 170.219C240.782 170.298 240.912 170.14 240.81 170.066C240.799 170.055 240.788 170.043 240.777 170.032C240.777 170.032 240.777 170.032 240.777 170.038C235.954 167.589 230.616 165.564 225.112 165.58C225.135 165.58 225.158 165.58 225.186 165.586C221.266 165.48 217.413 166.098 213.527 166.433C213.561 166.433 213.595 166.427 213.617 166.427C199.26 167.373 191.871 173.673 178.06 165.755C185.131 165.582 192.332 165.686 199.201 163.764C199.19 163.764 199.173 163.77 199.162 163.77C203.586 162.842 208.09 161.8 212.283 160.102C212.267 160.113 212.255 160.119 212.233 160.13C216.885 157.918 222.208 157.867 227.23 158.613C238.722 160.323 248.64 153.512 254.697 144.208C258.13 140.189 261.783 136.228 264.853 132.045ZM263.323 103.721C263.537 104.615 263.587 105.531 263.75 106.431C263.75 106.42 263.744 106.403 263.744 106.397C263.795 106.686 263.851 106.98 263.913 107.268C263.913 107.268 263.913 107.268 263.913 107.263C265.386 115.02 260.089 122.498 254.518 127.351C257.039 124.044 260.249 121.016 261.566 116.961C261.566 116.967 261.566 116.967 261.566 116.973C261.657 116.679 261.748 116.39 261.844 116.096C261.838 116.107 261.838 116.113 261.833 116.124C262.395 114.066 263.291 112.064 263.378 109.909C263.378 109.921 263.378 109.932 263.378 109.943C263.378 109.921 263.378 109.898 263.384 109.881C263.384 109.887 263.384 109.892 263.384 109.898C263.39 109.791 263.401 109.683 263.407 109.57C263.407 109.598 263.401 109.621 263.401 109.644C263.424 109.248 263.442 108.846 263.465 108.45C263.465 108.456 263.465 108.456 263.465 108.461C263.465 108.444 263.47 108.416 263.47 108.393C263.47 108.399 263.47 108.405 263.47 108.405C263.51 107.884 263.5 107.364 263.523 106.844C263.523 106.849 263.523 106.866 263.517 106.878C263.517 106.855 263.523 106.838 263.523 106.81C263.523 106.815 263.523 106.821 263.523 106.827C263.649 105.775 263.446 104.756 263.323 103.721ZM256.143 120.949C258.913 117.292 262.209 113.789 262.87 109.026C262.583 112.697 261.148 116.322 259.465 119.572C259.487 119.538 259.51 119.51 259.533 119.482C257.691 122.399 255.267 124.874 253.25 127.66C254.441 125.518 254.93 123.063 256.143 120.949ZM241.192 136.686C241.186 136.658 241.181 136.619 241.169 136.59C241.181 136.63 241.186 136.675 241.197 136.715C241.197 136.715 241.197 136.715 241.198 136.709C241.197 136.715 241.197 136.72 241.203 136.732C241.197 136.715 241.192 136.698 241.192 136.686ZM241.287 137.19C238.833 126.575 243.698 120.636 250.782 113.708C250.595 114.2 250.464 114.709 250.272 115.207C250.283 115.184 250.289 115.161 250.3 115.145C250.203 115.382 250.107 115.614 250.016 115.857C250.022 115.846 250.022 115.834 250.028 115.823C249.171 118.045 248.665 120.42 247.006 122.223C247.011 122.217 247.011 122.212 247.017 122.206C243.268 126.433 242.113 131.868 241.293 137.286C241.293 137.252 241.293 137.218 241.287 137.19ZM247.543 122.687C250.148 119.755 250.158 115.512 251.989 112.211C251.497 121.979 243.978 128.844 241.937 138.135C242.848 132.672 243.94 127.09 247.543 122.687ZM231.027 131.669C231.032 131.664 231.032 131.658 231.038 131.647C229.657 137.098 225.309 141.07 221.605 145.037C221.611 145.026 221.622 145.014 221.633 145.003C221.231 145.353 220.812 145.692 220.41 146.048C220.422 146.043 220.433 146.031 220.444 146.02C220.433 146.031 220.427 146.043 220.416 146.043C222.739 142.368 224.808 138.53 227.273 134.946C227.25 134.969 227.239 135.003 227.216 135.031C228.655 132.832 230.202 130.729 231.974 128.791C231.538 129.701 231.339 130.714 231.027 131.669ZM230.396 128.801C230.402 128.801 230.408 128.795 230.419 128.789C230.408 128.801 230.402 128.801 230.396 128.801C230.396 128.801 230.396 128.806 230.396 128.801ZM217.163 141.005C220.178 135.855 225.59 132.382 230.3 128.885C230.294 128.891 230.289 128.891 230.289 128.891C230.951 128.377 231.625 127.886 232.332 127.445C225.599 134.373 221.743 143.402 215.721 150.88C216.715 147.662 215.695 144.171 217.163 141.005ZM195.732 170.65C195.709 170.656 195.687 170.662 195.664 170.667C196.53 170.482 197.401 170.336 198.255 170.116C198.25 170.116 198.25 170.116 198.244 170.116C199.63 169.818 200.932 169.225 202.329 168.978C202.301 168.983 202.278 168.989 202.25 169C202.59 168.916 202.935 168.859 203.274 168.781C203.269 168.781 203.263 168.781 203.263 168.786C203.529 168.73 203.795 168.668 204.061 168.606C204.032 168.612 204.01 168.617 203.982 168.623C204.236 168.561 204.491 168.505 204.745 168.449C204.717 168.454 204.694 168.46 204.672 168.465C204.808 168.432 204.938 168.398 205.079 168.37C205.057 168.375 205.04 168.375 205.023 168.375C213.39 167.01 221.922 165.769 230.389 166.96C230.383 166.96 230.377 166.96 230.372 166.955C230.394 166.96 230.411 166.966 230.434 166.966C230.423 166.966 230.411 166.96 230.406 166.96C232.181 167.392 233.94 167.892 235.704 168.397C232.888 167.953 229.986 167.865 227.152 168.162C227.157 168.162 227.163 168.162 227.169 168.162C227.039 168.179 226.903 168.195 226.773 168.212C226.778 168.212 226.784 168.212 226.795 168.212C226.467 168.246 226.145 168.291 225.817 168.33C225.845 168.324 225.867 168.324 225.896 168.319C223.067 168.57 220.334 169.388 217.539 169.82C217.556 169.82 217.585 169.82 217.607 169.814C217.573 169.82 217.545 169.82 217.511 169.82C217.517 169.82 217.528 169.82 217.534 169.82C217.494 169.82 217.46 169.826 217.42 169.831C217.432 169.831 217.449 169.826 217.46 169.826C217.432 169.831 217.403 169.831 217.375 169.837C217.392 169.837 217.403 169.831 217.42 169.831C217.403 169.831 217.381 169.837 217.364 169.837C217.37 169.837 217.37 169.837 217.375 169.837C217.347 169.842 217.319 169.842 217.29 169.848C217.324 169.842 217.358 169.837 217.387 169.837C210.14 170.525 202.854 170.313 195.596 170.667C195.647 170.673 195.687 170.662 195.732 170.65ZM202.259 171.184C210.789 171.578 219.134 170.263 227.462 168.716C227.457 168.716 227.44 168.722 227.423 168.722C227.451 168.716 227.474 168.717 227.502 168.711C227.496 168.711 227.491 168.711 227.479 168.711C230.777 168.364 234.109 168.588 237.384 169.072C231.161 169.054 225.006 170.258 219.278 172.712C219.307 172.701 219.335 172.684 219.363 172.679C217.45 173.474 215.43 173.958 213.506 174.737C213.54 174.731 213.569 174.714 213.597 174.703C207.972 176.869 201.67 176.845 195.737 176.522C191.014 175.81 187.585 172.163 184.234 169.071C189.881 172.098 196.127 171.454 202.259 171.184ZM242.371 144.675C247.043 139.583 253.811 137.356 260.194 135.361C252.178 141.258 244.207 147.302 235.806 152.644C238.021 150.01 240.106 147.263 242.371 144.675ZM228.568 155.538C229.746 154.73 231.149 154.46 232.524 154.224C231.058 154.782 229.581 155.313 228.127 155.888C228.274 155.769 228.421 155.651 228.568 155.538ZM257.78 139.29C250.439 148.74 242.44 159.297 229.052 157.756C229.064 157.756 229.075 157.761 229.081 157.761C228.249 157.585 227.412 157.443 226.587 157.249C239.737 153.593 249.8 143.376 260.776 135.707C259.785 136.905 258.675 138.023 257.78 139.29Z" fill="#FEA423"/>
<path d="M94.2449 161.156C94.6352 161.156 95.0141 161.23 95.376 161.383C95.7378 161.531 96.0544 161.746 96.3312 162.023C96.6081 162.301 96.8227 162.623 96.9694 162.986C97.1217 163.348 97.1949 163.727 97.1944 164.123C97.194 164.513 97.1201 164.892 96.9669 165.254C96.8195 165.616 96.6042 165.938 96.3267 166.215C96.0492 166.492 95.7322 166.706 95.37 166.859C95.0078 167.005 94.6287 167.084 94.2384 167.084C93.8481 167.083 93.4749 167.004 93.113 166.856C92.7511 166.703 92.429 166.488 92.1521 166.21C91.8752 165.933 91.6663 165.61 91.5139 165.248C91.3672 164.886 91.2885 164.507 91.2889 164.116C91.2893 163.72 91.3689 163.342 91.5164 162.98C91.6695 162.618 91.8792 162.296 92.1566 162.019C92.4341 161.742 92.7568 161.527 93.119 161.381C93.4812 161.228 93.8546 161.155 94.2449 161.156Z" fill="#FEA423"/>
<path d="M169.768 10.0635C170.158 10.0639 170.537 10.1379 170.899 10.291C171.261 10.4441 171.577 10.6538 171.854 10.9313C172.131 11.2144 172.346 11.5314 172.492 11.8936C172.645 12.2614 172.718 12.6349 172.717 13.0308C172.717 13.4211 172.643 13.8 172.49 14.1619C172.342 14.5294 172.127 14.846 171.85 15.1228C171.572 15.3997 171.255 15.6143 170.893 15.7667C170.531 15.9133 170.152 15.9921 169.761 15.9917C169.371 15.9913 168.992 15.9117 168.63 15.7642C168.268 15.6111 167.952 15.3958 167.675 15.1183C167.398 14.8408 167.183 14.5238 167.037 14.156C166.884 13.7938 166.811 13.4147 166.812 13.0244C166.812 12.6284 166.886 12.2552 167.039 11.8876C167.187 11.5258 167.402 11.2092 167.679 10.9267C167.957 10.6498 168.274 10.4409 168.636 10.2886C168.998 10.1362 169.377 10.0631 169.768 10.0635Z" fill="#FEA423"/>
<path d="M195.732 21.7863L198.763 22.2874C200.086 22.5038 201.149 22.9405 201.952 23.6032C202.749 24.2716 203.274 25.0528 203.533 25.9581C203.787 26.8522 203.837 27.7629 203.689 28.6961C203.535 29.7255 203.155 30.5962 202.554 31.3196C201.948 32.0316 201.201 32.523 200.313 32.8105C199.436 33.1093 198.514 33.1819 197.552 33.0337L194.023 32.4642L195.732 21.7863ZM197.509 31.3593C198.278 31.4846 198.979 31.4458 199.613 31.2485C200.247 31.0399 200.768 30.6841 201.175 30.1867C201.583 29.6894 201.844 29.0674 201.969 28.3096C202.106 27.4669 202.039 26.7428 201.768 26.1372C201.509 25.5204 201.124 25.0278 200.616 24.6652C200.118 24.3027 199.564 24.0758 198.965 23.9846L197.178 23.6885L195.97 31.1088L197.509 31.3593Z" fill="#FFF7F3"/>
<path d="M220.298 29.8259L219.527 31.3185L214.71 28.8017L213.372 31.357L217.669 33.6017L216.898 35.0942L212.601 32.8495L211.264 35.4501L216.284 38.0577L215.513 39.5275L208.978 36.1264L213.966 26.5156L220.298 29.8259Z" fill="#FFF7F3"/>
<path d="M234.605 42.0737L223.151 46.5413L227.824 35.1652L229.271 36.6375L226.208 43.6711L233.181 40.6241L234.605 42.0737Z" fill="#FFF7F3"/>
<path d="M243.202 56.4271L241.708 57.1722L239.292 52.3048L236.734 53.5918L238.879 57.9158L237.385 58.6608L235.24 54.3368L232.591 55.6463L235.097 60.7174L233.626 61.4625L230.352 54.8519L240.019 50.0203L243.202 56.4271Z" fill="#FFF7F3"/>
<path d="M246.509 67.7104L237.457 69.1939L238.334 74.4668L236.704 74.7366L235.558 67.7663L246.24 66.0131L246.509 67.7104Z" fill="#FFF7F3"/>
<path d="M242.27 81.3888C243.248 81.5539 244.108 81.9564 244.848 82.5908C245.6 83.2251 246.159 83.9951 246.52 84.9005C246.881 85.8173 246.976 86.7677 246.811 87.7518C246.64 88.7302 246.232 89.5952 245.586 90.3525C244.952 91.1042 244.171 91.652 243.254 92.0017C242.332 92.3627 241.387 92.4579 240.425 92.2928C239.441 92.122 238.576 91.7251 237.825 91.0907C237.073 90.4677 236.531 89.6921 236.198 88.7584C235.854 87.836 235.765 86.8856 235.93 85.9072C236.1 84.9231 236.492 84.0581 237.109 83.3064C237.726 82.566 238.491 82.0182 239.396 81.6571C240.313 81.3074 241.275 81.218 242.27 81.3888ZM241.974 83.1307C241.278 83.0224 240.616 83.084 239.983 83.3095C239.349 83.5464 238.811 83.9248 238.375 84.4391C237.933 84.9477 237.655 85.547 237.536 86.2257C237.428 86.8874 237.495 87.5267 237.737 88.1492C237.974 88.766 238.358 89.2868 238.89 89.7117C239.415 90.1478 240.026 90.42 240.721 90.5282C241.411 90.6478 242.079 90.5863 242.713 90.3494C243.358 90.1068 243.896 89.7398 244.32 89.2424C244.757 88.7451 245.034 88.1571 245.16 87.4785C245.262 86.7998 245.195 86.1492 244.958 85.5324C244.715 84.9099 244.331 84.3834 243.806 83.9472C243.275 83.5224 242.664 83.2502 241.974 83.1307Z" fill="#FFF7F3"/>
<path d="M240.714 105.172C240.136 106.24 239.411 106.935 238.54 107.251C237.663 107.567 236.741 107.464 235.78 106.954C235.237 106.665 234.785 106.28 234.423 105.799C234.073 105.329 233.881 104.768 233.837 104.124C233.792 103.49 233.974 102.794 234.382 102.043L235.13 100.663L231.829 98.872L232.645 97.3569L242.165 102.481L240.714 105.172ZM235.852 102.813C235.625 103.232 235.523 103.616 235.557 103.967C235.601 104.329 235.72 104.629 235.918 104.873C236.127 105.11 236.353 105.303 236.596 105.439C236.986 105.649 237.416 105.717 237.885 105.644C238.366 105.565 238.774 105.226 239.108 104.627L239.879 103.202L236.6 101.434L235.852 102.813Z" fill="#FFF7F3"/>
<path d="M227.998 121.239L226.823 120.038L230.674 116.219L228.662 114.18L225.219 117.57L224.044 116.37L227.487 112.979L225.408 110.896L221.376 114.873L220.223 113.696L225.478 108.497L233.072 116.199L227.998 121.239Z" fill="#FFF7F3"/>
<path d="M209.593 120.169L213.482 122.414L213.64 122.323L215.044 121.623L213.328 118.273L214.845 117.482L219.767 127.104L217.073 128.481C216.003 129.035 215.008 129.203 214.086 128.976C213.153 128.76 212.435 128.171 211.938 127.209C211.639 126.62 211.487 126.009 211.488 125.376C211.477 124.742 211.664 124.154 212.055 123.611L207.827 121.072L209.593 120.169ZM215.789 123.095L214.386 123.795C213.786 124.111 213.429 124.507 213.321 124.993C213.218 125.474 213.275 125.926 213.5 126.351C213.624 126.588 213.805 126.809 214.043 127.007C214.269 127.2 214.557 127.325 214.902 127.37C215.253 127.416 215.626 127.332 216.034 127.123L217.483 126.4L215.789 123.095Z" fill="#FFF7F3"/>
<path d="M195.714 59.9542C195.154 59.9536 194.684 60.0379 194.311 60.2015C193.948 60.3708 193.62 60.6081 193.337 60.9245C193.02 61.3767 192.86 62.3947 192.858 63.9786L192.844 77.1247C192.843 78.4992 192.728 79.6927 192.501 80.6993C192.274 81.6946 191.967 82.5484 191.593 83.2551C191.23 83.9675 190.805 84.544 190.324 84.996C189.854 85.448 189.362 85.8038 188.852 86.0578C188.337 86.3118 187.833 86.4866 187.336 86.5766C186.838 86.6666 186.385 86.7113 185.978 86.7109C185.31 86.7101 184.734 86.619 184.236 86.4375C183.738 86.2672 183.32 86.0461 182.992 85.7573C182.659 85.4741 182.41 85.1458 182.247 84.7835C182.077 84.4213 181.998 84.0479 181.999 83.6519C181.999 83.3069 182.051 83.0071 182.158 82.7471C182.277 82.4757 182.43 82.2609 182.612 82.0914C182.793 81.9106 183.002 81.7863 183.245 81.7074C183.483 81.6172 183.732 81.5722 183.992 81.5725C184.383 81.5729 184.705 81.6751 184.965 81.8677C185.236 82.049 185.451 82.2868 185.62 82.5698C185.801 82.8415 185.948 83.1358 186.072 83.4527C186.207 83.7697 186.331 84.0639 186.456 84.3356C186.591 84.6073 186.738 84.845 186.907 85.0375C187.088 85.2187 187.303 85.3095 187.563 85.3097C187.744 85.3099 187.914 85.2592 188.084 85.1519C188.265 85.0503 188.424 84.8751 188.56 84.632C188.707 84.3946 188.832 84.0836 188.923 83.7047C189.014 83.3145 189.059 82.8394 189.06 82.2794L189.08 63.9745C189.081 63.1769 189.059 62.549 189.014 62.0964C188.969 61.6438 188.862 61.2817 188.698 61.01C188.608 60.8741 188.478 60.7495 188.314 60.6249C188.145 60.489 187.941 60.3756 187.704 60.2848C187.477 60.1828 187.229 60.0977 186.957 60.0351C186.686 59.9783 186.42 59.944 186.165 59.9438L185.215 59.9427L185.216 59.2187L196.688 59.2312L196.687 59.9552L195.714 59.9542Z" fill="#FFF7F3"/>
<path d="M217.35 79.2556C217.348 80.2852 217.132 81.2466 216.713 82.1512C216.305 83.0558 215.721 83.8471 214.968 84.5251C214.209 85.203 213.315 85.7394 212.274 86.1286C211.244 86.5348 210.112 86.7372 208.879 86.7358C207.957 86.7348 207.12 86.6491 206.368 86.4842C205.627 86.3307 204.954 86.1546 204.355 85.9616C203.766 85.7686 203.246 85.5927 202.794 85.4395C202.342 85.275 201.957 85.1897 201.64 85.1893C201.323 85.189 201.063 85.3019 200.871 85.5279C200.672 85.7426 200.53 86.1385 200.439 86.7267L199.715 86.7259L199.725 77.4942L200.449 77.495C200.612 78.8867 200.944 80.0693 201.441 81.0485C201.938 82.0163 202.537 82.8089 203.249 83.4262C203.972 84.0323 204.775 84.48 205.668 84.7638C206.556 85.0363 207.478 85.1731 208.428 85.1741C209.254 85.175 210.001 85.057 210.669 84.8145C211.331 84.5777 211.891 84.2615 212.344 83.866C212.808 83.4593 213.171 82.9958 213.432 82.4644C213.687 81.9386 213.817 81.3787 213.818 80.7904C213.819 80.1286 213.695 79.5458 213.458 79.0478C213.232 78.5384 212.859 78.0459 212.351 77.5758C211.837 77.1114 211.164 76.6242 210.339 76.1255C209.508 75.6155 208.507 75.0261 207.331 74.3574C205.748 73.4676 204.443 72.6686 203.419 71.9547C202.408 71.2465 201.611 70.5669 201.023 69.9157C200.447 69.2532 200.057 68.591 199.849 67.9233C199.635 67.2612 199.534 66.5144 199.535 65.6829C199.536 64.7326 199.718 63.839 200.08 62.9909C200.443 62.1315 200.965 61.3797 201.644 60.73C202.324 60.0858 203.144 59.572 204.112 59.194C205.074 58.8048 206.155 58.608 207.348 58.6093C208.129 58.6101 208.842 58.6957 209.475 58.8605C210.12 59.0139 210.697 59.1899 211.194 59.3828C211.692 59.5813 212.133 59.7571 212.529 59.9046C212.919 60.0578 213.258 60.1317 213.546 60.132C213.846 60.1323 214.101 60.0308 214.316 59.8161C214.526 59.59 214.701 59.1942 214.838 58.6174L215.585 58.6182L215.574 67.9404L214.828 67.9396C214.693 66.6723 214.406 65.5577 213.972 64.5899C213.548 63.6278 213 62.8183 212.322 62.1671C211.656 61.5045 210.904 61.0116 210.061 60.6939C209.213 60.3649 208.32 60.1942 207.369 60.1932C206.719 60.1924 206.108 60.3049 205.536 60.5306C204.959 60.7449 204.461 61.0385 204.042 61.4114C203.617 61.7899 203.277 62.2364 203.022 62.7452C202.778 63.2428 202.659 63.763 202.659 64.3061C202.658 64.8378 202.754 65.3244 202.951 65.7771C203.143 66.2186 203.493 66.6715 203.99 67.1359C204.499 67.6059 205.189 68.1101 206.048 68.6541C206.907 69.1981 207.998 69.8271 209.327 70.5357C210.604 71.2328 211.661 71.8449 212.492 72.3719C213.335 72.8875 213.99 73.3182 214.459 73.6637C215.375 74.3435 216.087 75.1758 216.584 76.155C217.092 77.1228 217.351 78.1583 217.35 79.2556Z" fill="#FFF7F3"/>
<path d="M93.5282 38.7125C93.5274 39.4083 93.4193 40.0587 93.2093 40.658C92.9937 41.2631 92.665 41.7888 92.212 42.2408C91.7703 42.6929 91.2042 43.0543 90.5138 43.3251C89.8348 43.5845 89.0201 43.7194 88.0697 43.7297L83.6801 43.7701L83.6804 43.4986L84.0424 43.499C84.2517 43.4992 84.4271 43.4655 84.563 43.3865C84.7101 43.3131 84.8234 43.217 84.9027 43.0927C84.9593 43.0022 84.9991 42.8665 85.0163 42.6855C85.0278 42.5045 85.0393 42.2783 85.0396 42.0067L84.9787 35.6486C84.9793 35.049 84.9175 34.6643 84.7989 34.4944C84.6915 34.3925 84.5728 34.3132 84.4371 34.2678C84.3014 34.2224 84.1431 34.1996 83.962 34.1994L83.6 34.199L83.6003 33.9501L87.5826 33.9092C88.1257 33.9098 88.6121 33.9273 89.0533 33.956C89.4888 33.9905 89.8791 34.0588 90.2297 34.161C90.5916 34.2519 90.9082 34.3653 91.1796 34.5014C91.4623 34.6375 91.728 34.8131 91.971 35.0227C92.197 35.2209 92.4061 35.453 92.6038 35.7248C92.7958 35.9965 92.9539 36.2908 93.078 36.6077C93.2134 36.9133 93.3148 37.2415 93.3936 37.6036C93.4838 37.9658 93.5286 38.3392 93.5282 38.7125ZM91.8764 38.7786C91.8602 38.0998 91.7533 37.5 91.5616 36.9681C91.3642 36.4418 91.0875 35.989 90.7259 35.6096C90.3756 35.2359 89.9573 34.9469 89.4597 34.7484C88.9735 34.5556 88.4475 34.4532 87.8762 34.4525C87.6499 34.4523 87.4123 34.469 87.1747 34.497C86.9314 34.5307 86.6655 34.587 86.3826 34.6772L86.464 43.0491C86.7637 43.0947 87.0408 43.1403 87.301 43.1858C87.5555 43.22 87.7874 43.2316 88.0024 43.2318C88.5567 43.2324 89.0716 43.1368 89.5413 42.9393C90.0224 42.7306 90.4356 42.4369 90.7867 42.0583C91.1322 41.6683 91.3986 41.1991 91.5802 40.6563C91.7731 40.1021 91.8756 39.4744 91.8764 38.7786Z" fill="#FFF7F3"/>
<path d="M104.02 46.2906L104.111 46.0418C104.439 46.144 104.687 46.1669 104.857 46.1105C105.021 46.0654 105.135 45.975 105.197 45.8393C105.254 45.7036 105.288 45.5283 105.288 45.319C105.299 45.121 105.294 44.9174 105.266 44.7081L105.132 43.1693L101.536 42.0114L100.425 43.2999C100.244 43.4808 100.108 43.6503 100.018 43.7973C99.9269 43.9499 99.8815 44.0913 99.8814 44.227C99.8926 44.3459 99.9716 44.4647 100.107 44.5893C100.243 44.7083 100.475 44.8386 100.808 44.9747L100.717 45.2235L97.777 44.27L97.8678 44.0212C98.0601 44.0667 98.2411 44.0782 98.4108 44.0444C98.5749 44.0163 98.7334 43.9543 98.8862 43.8639C99.0503 43.7623 99.2145 43.6324 99.3844 43.4798C99.5656 43.316 99.7468 43.1295 99.9281 42.9148L105.728 36.2688L105.954 36.337L106.691 45.1848C106.719 45.5468 106.758 45.8467 106.803 46.09C106.848 46.3276 106.904 46.5087 106.984 46.6332C107.074 46.7691 107.176 46.8823 107.3 46.9729C107.436 47.0749 107.594 47.1656 107.775 47.245L107.684 47.4938L104.02 46.2906ZM104.753 38.3268L101.898 41.5819L105.11 42.6262L104.753 38.3268Z" fill="#FFF7F3"/>
<path d="M124.836 47.5204C124.683 47.4014 124.525 47.3164 124.361 47.271C124.208 47.2255 124.056 47.2424 123.909 47.3157C123.739 47.3778 123.49 47.6264 123.161 48.0616L118.244 54.7311L118.018 54.5725L117.509 44.322L113.906 49.1828C113.543 49.6633 113.373 50.0195 113.407 50.2458C113.418 50.5003 113.587 50.7437 113.904 50.9704L114.175 51.1743L114.016 51.4004L111.258 49.361L111.417 49.1349L111.688 49.3388C111.869 49.4748 112.033 49.5541 112.186 49.5883C112.333 49.6337 112.485 49.6338 112.638 49.5887C112.729 49.5436 112.831 49.4589 112.955 49.3402C113.091 49.2159 113.238 49.0464 113.408 48.8203L117.487 43.3264C117.47 43.2699 117.465 43.1794 117.465 43.0549C117.476 42.9192 117.471 42.7721 117.443 42.6023C117.409 42.4383 117.341 42.2628 117.239 42.0817C117.132 41.8893 116.968 41.6968 116.742 41.5155L116.901 41.312L118.823 42.7396L119.287 52.2207L122.641 47.6764C123.015 47.179 123.185 46.8398 123.14 46.6587C123.123 46.3759 122.96 46.1155 122.643 45.8889L122.372 45.7076L122.53 45.5041L125.266 47.5208L125.107 47.7243L124.836 47.5204Z" fill="#FFF7F3"/>
<path d="M122.316 58.7818L122.52 58.6236L122.746 58.8954C122.865 59.0426 122.995 59.1559 123.13 59.2352C123.277 59.3089 123.424 59.3487 123.56 59.3488C123.741 59.349 124.064 59.1571 124.534 58.7842L129.538 54.8526C129.657 54.7509 129.765 54.6606 129.855 54.5815C129.957 54.508 130.042 54.4402 130.105 54.3781C130.178 54.3216 130.229 54.2651 130.263 54.2199C130.292 54.1633 130.297 54.1068 130.286 54.0615C130.331 53.9145 130.332 53.7561 130.286 53.5864C130.241 53.4223 130.162 53.2695 130.061 53.1336L129.835 52.8618L130.016 52.7036L132.614 55.9873L132.433 56.1455L132.23 55.8964C131.987 55.5794 131.71 55.4207 131.393 55.4203C131.303 55.4372 131.173 55.488 131.008 55.5783C130.839 55.6573 130.646 55.7815 130.42 55.9623L125.415 59.8939C125.171 60.0859 124.99 60.2555 124.871 60.3911C124.747 60.5267 124.673 60.6398 124.645 60.7302C124.628 60.7585 124.622 60.8094 124.622 60.8886C124.633 60.9791 124.656 61.0696 124.689 61.1602C124.718 61.2507 124.746 61.33 124.78 61.4092C124.808 61.4997 124.853 61.579 124.915 61.6582L125.119 61.9073L124.915 62.0655L122.316 58.7818Z" fill="#FFF7F3"/>
<path d="M130.624 72.8114L127.532 65.8843L127.781 65.7714L127.916 66.0657C127.927 66.111 127.95 66.1619 127.984 66.2242C128.012 66.2808 128.052 66.3431 128.097 66.4053C128.142 66.4619 128.193 66.5186 128.255 66.5639C128.312 66.6205 128.374 66.6658 128.436 66.6998C128.493 66.7112 128.555 66.7283 128.617 66.7453C128.673 66.7567 128.753 66.7568 128.843 66.7455C128.934 66.7287 129.047 66.6892 129.183 66.6328C129.33 66.5877 129.5 66.5256 129.681 66.4523L135.521 63.834C135.804 63.7155 136.031 63.6026 136.2 63.4953C136.365 63.3767 136.461 63.2863 136.495 63.2241C136.597 62.9697 136.569 62.6529 136.405 62.2737L136.27 61.9794L136.496 61.8891L139.589 68.8163L137.687 69.7645L137.551 69.4928C137.67 69.4025 137.784 69.3177 137.891 69.2443C138.01 69.1653 138.118 69.0862 138.208 68.9958C138.299 68.9054 138.367 68.798 138.412 68.6792C138.469 68.5718 138.509 68.4417 138.526 68.2947C138.554 68.159 138.549 67.9893 138.504 67.7969C138.459 67.5989 138.374 67.3725 138.255 67.1178L137.149 64.6277L133.595 66.2077L134.476 68.1998C134.611 68.4997 134.735 68.7261 134.86 68.879C134.995 69.0432 135.136 69.1395 135.289 69.1736C135.436 69.2021 135.595 69.2022 135.764 69.1741C135.945 69.1574 136.16 69.1123 136.421 69.0391L136.533 69.2881L133.409 70.6649L133.297 70.4159C133.506 70.2804 133.687 70.1505 133.84 70.0318C133.987 69.9245 134.095 69.8059 134.157 69.6702C134.231 69.5345 134.254 69.3648 134.226 69.1725C134.192 68.9744 134.113 68.7255 133.978 68.4255L133.097 66.4334L129.747 67.9231C129.622 67.9795 129.526 68.0473 129.453 68.1264C129.373 68.2169 129.339 68.3186 129.339 68.4431C129.339 68.5788 129.384 68.7599 129.474 68.9863L130.151 70.4804C130.253 70.735 130.36 70.9444 130.468 71.1143C130.569 71.2784 130.676 71.4313 130.784 71.5671C130.902 71.703 131.032 71.7993 131.168 71.8617C131.315 71.9354 131.473 71.9978 131.643 72.0432C131.824 72.1 132.028 72.1455 132.254 72.1796C132.491 72.2252 132.763 72.2537 133.068 72.271L133.204 72.5427L130.624 72.8114Z" fill="#FFF7F3"/>
<path d="M133.13 85.3034L132.143 77.7224L132.415 77.6774C132.426 77.8867 132.46 78.0848 132.505 78.2658C132.561 78.4469 132.64 78.5884 132.73 78.696C132.832 78.8149 132.968 78.8999 133.137 78.9453C133.318 78.9908 133.533 78.991 133.794 78.946L140.582 78.071C140.865 78.0373 141.086 77.981 141.239 77.8907C141.386 77.8003 141.494 77.6873 141.556 77.5516C141.613 77.4159 141.636 77.2576 141.624 77.0765C141.625 76.8955 141.613 76.7032 141.602 76.4882L141.874 76.4433L142.412 80.675L142.141 80.72C142.107 80.4937 142.073 80.2957 142.028 80.1316C141.983 79.9618 141.916 79.8203 141.825 79.7015C141.735 79.5939 141.605 79.5202 141.441 79.4748C141.271 79.4293 141.045 79.4178 140.762 79.4514L134.335 80.2816C134.047 80.3265 133.826 80.3772 133.679 80.4393C133.543 80.5127 133.435 80.603 133.362 80.7104C133.282 80.8291 133.248 80.9592 133.248 81.095C133.248 81.242 133.259 81.4344 133.293 81.6607L133.427 82.6338C133.455 82.9336 133.483 83.1882 133.517 83.4032C133.562 83.6295 133.607 83.8162 133.652 83.969C133.709 84.1161 133.776 84.2463 133.856 84.3539C133.929 84.4727 134.019 84.5803 134.127 84.6709C134.245 84.7729 134.358 84.8635 134.466 84.9428C134.568 85.0334 134.692 85.1071 134.828 85.1695C134.963 85.2432 135.11 85.3055 135.28 85.351C135.444 85.4077 135.647 85.4702 135.891 85.5327L135.89 85.8268L133.13 85.3034Z" fill="#FFF7F3"/>
<path d="M29.3472 103.454C29.8338 103.29 30.3091 103.194 30.773 103.161C31.2425 103.116 31.695 103.134 32.1305 103.208C32.5547 103.287 32.9618 103.412 33.3519 103.594C33.7308 103.764 34.0869 103.979 34.4147 104.251C34.7312 104.523 35.0136 104.84 35.2508 105.202C35.4767 105.565 35.6686 105.961 35.8152 106.38C36.0295 107.013 36.108 107.647 36.062 108.28C36.0048 108.914 35.8288 109.513 35.5397 110.067C35.2393 110.61 34.8315 111.102 34.3162 111.537C33.8067 111.972 33.1784 112.31 32.4371 112.553C31.7468 112.778 31.0566 112.874 30.3778 112.845C29.699 112.81 29.077 112.651 28.5003 112.368C27.9293 112.095 27.4319 111.716 27.0082 111.235C26.5731 110.753 26.24 110.17 26.0145 109.491C25.8792 109.101 25.8061 108.694 25.7896 108.269C25.7787 107.851 25.8244 107.443 25.9266 107.048C26.0176 106.657 26.1651 106.279 26.3578 105.917C26.5392 105.544 26.7828 105.193 27.083 104.877C27.3718 104.56 27.7115 104.283 28.1021 104.041C28.4813 103.803 28.8945 103.606 29.3472 103.454ZM30.0696 104.925C29.3453 105.151 28.7285 105.421 28.2134 105.738C27.7039 106.043 27.2963 106.387 26.9904 106.777C26.6902 107.173 26.503 107.591 26.4234 108.044C26.3493 108.485 26.3941 108.96 26.5576 109.469C26.7098 109.939 26.9526 110.324 27.2804 110.624C27.5968 110.93 27.9925 111.145 28.4562 111.281C28.9086 111.406 29.429 111.441 30.0173 111.396C30.5944 111.352 31.2111 111.228 31.8731 111.014C32.5409 110.788 33.1181 110.529 33.6162 110.224C34.1144 109.907 34.522 109.563 34.8392 109.184C35.1451 108.811 35.3379 108.393 35.4289 107.94C35.5199 107.488 35.4977 107.03 35.3625 106.56C35.2159 106.124 34.9957 105.745 34.7075 105.428C34.4081 105.1 34.0407 104.856 33.5996 104.703C33.1473 104.555 32.6382 104.498 32.0612 104.543C31.4729 104.576 30.8109 104.7 30.0696 104.925Z" fill="#FFF7F3"/>
<path d="M30.797 90.2546C31.176 90.2437 31.5323 90.312 31.8603 90.4594C32.1939 90.5955 32.4878 90.7995 32.742 91.0713C33.002 91.3318 33.2052 91.6544 33.3519 92.0449C33.4986 92.4241 33.583 92.8371 33.5994 93.2896C33.5991 93.6234 33.5761 93.9232 33.5306 94.1946C33.485 94.4661 33.4338 94.7149 33.3714 94.9411C33.2976 95.156 33.2295 95.3426 33.1671 95.5066C33.1104 95.6762 33.0763 95.8176 33.0761 95.9364C33.076 96.0439 33.1212 96.1344 33.2116 96.2081C33.302 96.2873 33.4547 96.3384 33.664 96.3669L33.6637 96.6384L30.2922 96.7027L30.2925 96.4311C30.8074 96.3582 31.2374 96.2285 31.5827 96.0479C31.9336 95.8559 32.211 95.63 32.4206 95.37C32.6358 95.0987 32.7945 94.7991 32.8967 94.4655C32.9876 94.1375 33.0332 93.7981 33.0336 93.4474C33.0226 93.1476 32.9663 92.8817 32.8761 92.6553C32.7858 92.4176 32.6673 92.2139 32.5147 92.044C32.3678 91.8628 32.1926 91.7382 31.9947 91.6588C31.8025 91.5681 31.5989 91.5226 31.3839 91.5223C31.1464 91.5221 30.9314 91.5671 30.7503 91.6574C30.5578 91.7477 30.3823 91.8946 30.2294 92.0868C30.0651 92.2676 29.8895 92.5163 29.7081 92.8329C29.5268 93.1381 29.3171 93.5056 29.0734 93.9409C28.756 94.5458 28.4783 95.0376 28.2346 95.4107C27.9796 95.7894 27.7361 96.0833 27.5096 96.2923C27.2718 96.507 27.0284 96.6539 26.7851 96.7441C26.5474 96.823 26.2758 96.8567 25.9704 96.8563C25.6253 96.8729 25.2916 96.8217 24.975 96.6969C24.6583 96.5777 24.3814 96.3964 24.1384 96.1529C23.9011 95.9151 23.7034 95.6207 23.551 95.2698C23.4044 94.9077 23.32 94.5116 23.3035 94.0704C23.3038 93.7875 23.338 93.5274 23.3948 93.3012C23.4403 93.0636 23.5028 92.8487 23.5765 92.6678C23.6389 92.4869 23.7013 92.3285 23.758 92.1928C23.8035 92.0458 23.8262 91.9157 23.8263 91.8083C23.8265 91.6895 23.7926 91.5933 23.7135 91.514C23.6231 91.4404 23.4648 91.378 23.2386 91.3325L23.2389 91.0609L26.6555 90.9968L26.6553 91.2683C26.2027 91.3131 25.8066 91.4201 25.4557 91.5838C25.0935 91.7531 24.7991 91.9621 24.5726 92.2164C24.346 92.4593 24.1817 92.7363 24.0739 93.053C23.9547 93.3696 23.8921 93.709 23.8918 94.071C23.9085 94.2973 23.9591 94.518 24.0494 94.7273C24.1284 94.9254 24.2413 95.1066 24.3882 95.2708C24.5238 95.4236 24.6821 95.5426 24.863 95.6333C25.0439 95.7127 25.2419 95.7468 25.4512 95.7471C25.6322 95.7473 25.8076 95.7135 25.9717 95.6345C26.1415 95.5442 26.3057 95.4086 26.4699 95.2278C26.6398 95.0469 26.8211 94.7982 27.0138 94.4817C27.1952 94.1538 27.4105 93.7467 27.6487 93.2605C27.9094 92.78 28.1248 92.3899 28.3061 92.0847C28.4875 91.7681 28.6461 91.5307 28.7821 91.3611C29.0087 90.9993 29.3032 90.7282 29.6654 90.5475C30.0163 90.3556 30.3898 90.2542 30.797 90.2546Z" fill="#FFF7F3"/>
<path d="M33.901 76.0365C34.2627 76.3876 34.5565 76.7387 34.7823 77.1009C35.0082 77.4519 35.1719 77.8141 35.2789 78.1876C35.3803 78.5667 35.4365 78.957 35.436 79.3643C35.4356 79.7603 35.3729 80.1788 35.2536 80.6312C35.1173 81.1288 34.9245 81.5698 34.6866 81.9429C34.4599 82.3217 34.1936 82.6551 33.8935 82.9376C33.5934 83.2258 33.2594 83.4574 32.8972 83.638C32.5237 83.8186 32.1276 83.9539 31.7202 84.044C31.3128 84.1227 30.8942 84.1506 30.453 84.1331C30.0174 84.1213 29.5876 84.053 29.1635 83.9281C28.4736 83.7463 27.8517 83.4515 27.3091 83.0436C26.7552 82.6357 26.3031 82.1601 25.953 81.6166C25.6086 81.0619 25.383 80.4508 25.2762 79.7832C25.1582 79.1042 25.1985 78.4028 25.3916 77.679C25.4825 77.3171 25.6073 77.0174 25.7547 76.7743C25.9077 76.52 26.0493 76.3108 26.1853 76.1413C26.3099 75.9604 26.4288 75.8191 26.5477 75.7117C26.6554 75.5931 26.7177 75.497 26.7291 75.4178C26.7745 75.2821 26.7633 75.1576 26.6842 75.0331C26.5939 74.8972 26.4469 74.7726 26.2321 74.6479L26.3003 74.3991L29.5805 75.0362L29.5349 75.2851C29.0088 75.3185 28.5392 75.3858 28.1319 75.4872C27.7131 75.5942 27.3623 75.7522 27.0905 75.9612C26.8075 76.1589 26.564 76.4075 26.3657 76.7071C26.173 77.0124 26.0199 77.3403 25.912 77.7022C25.7757 78.1885 25.7469 78.6636 25.82 79.1276C25.8817 79.5971 26.0622 80.0329 26.3616 80.4405C26.6666 80.8368 27.0792 81.1993 27.6049 81.5279C28.1362 81.8453 28.7978 82.1119 29.5951 82.322C30.2737 82.5208 30.9015 82.6063 31.4729 82.573C32.0499 82.5453 32.5591 82.4271 33.0119 82.2126C33.4533 82.0038 33.8157 81.7044 34.1216 81.3088C34.4218 80.9188 34.6486 80.4608 34.8019 79.9293C34.8758 79.6126 34.9213 79.3185 34.9386 79.047C34.9502 78.7642 34.9222 78.4757 34.849 78.1871C34.7701 77.9042 34.6347 77.5986 34.4427 77.2816C34.2621 76.9646 34.0023 76.5966 33.6746 76.172L33.901 76.0365Z" fill="#FFF7F3"/>
<path d="M41.3633 67.2669L41.1372 67.1082C41.3298 66.8256 41.4319 66.5994 41.4321 66.4297C41.4323 66.2487 41.3702 66.1072 41.2515 65.9996C41.1272 65.8977 40.9802 65.8183 40.7992 65.7729C40.6183 65.7161 40.4147 65.6706 40.1885 65.6365L38.6728 65.3633L36.5877 68.5287L37.5365 69.9326C37.6607 70.1477 37.7736 70.3175 37.8979 70.4534C38.0166 70.5893 38.1353 70.6686 38.2597 70.6801C38.3955 70.6972 38.5369 70.6578 38.6897 70.5674C38.8369 70.4658 39.0182 70.268 39.2334 69.9797L39.4595 70.1384L37.7597 72.7386L37.5336 72.5799C37.6243 72.399 37.6811 72.2294 37.6926 72.0597C37.721 71.8787 37.7156 71.709 37.6705 71.5393C37.6141 71.3582 37.5295 71.1714 37.4222 70.9733C37.3206 70.7639 37.1851 70.5432 37.0156 70.3167L32.159 62.9351L32.2949 62.7317L41.027 64.3929C41.372 64.4385 41.6661 64.4784 41.9093 64.507C42.1469 64.5412 42.3449 64.5414 42.4976 64.5076C42.6447 64.4625 42.7806 64.3892 42.9051 64.2818C43.024 64.1801 43.1543 64.0445 43.2902 63.875L43.5163 64.0336L41.3633 67.2669ZM33.8996 64.4078L36.2715 68.0306L38.1299 65.2269L33.8996 64.4078Z" fill="#FFF7F3"/>
<path d="M51.8779 56.6943L46.4023 55.1557C46.2948 55.2462 46.2043 55.331 46.1308 55.4046C46.0572 55.4668 45.9894 55.5177 45.9271 55.5629C45.8819 55.6082 45.831 55.6535 45.7688 55.6987C45.7122 55.744 45.65 55.7836 45.5877 55.8118L47.3752 58.0519C47.7655 58.5383 48.054 58.7872 48.2351 58.7986C48.5179 58.8777 48.812 58.7929 49.1175 58.5497L49.4116 58.3234L49.57 58.527L46.2665 61.1517L46.1081 60.9481L46.4023 60.7218C46.7304 60.4503 46.8775 60.1562 46.8322 59.8394C46.7983 59.6753 46.6116 59.3755 46.2665 58.9343L42.3069 53.9565C41.9335 53.4926 41.645 53.2211 41.4471 53.1419C41.3 53.1419 41.1529 53.1645 41.0172 53.2098C40.8701 53.2437 40.723 53.3173 40.5873 53.436L40.2931 53.6623L40.1573 53.4813L42.9404 51.2639C43.3647 50.9358 43.7324 50.653 44.0491 50.4267C44.3659 50.2004 44.6544 50.0421 44.9089 49.9515C45.1522 49.861 45.4011 49.8101 45.6556 49.7932C45.9158 49.7649 46.1591 49.7818 46.4023 49.8384C46.6568 49.9006 46.8888 49.9968 47.1037 50.1326C47.33 50.2683 47.5223 50.4437 47.692 50.653C47.8843 50.8962 48.0314 51.1451 48.1219 51.3996C48.2124 51.6599 48.2407 51.937 48.2124 52.2368C48.1955 52.5423 48.1219 52.8478 47.9862 53.1645C47.8617 53.4813 47.675 53.8094 47.4205 54.1375L50.724 55.1104C51.086 55.2009 51.4028 55.2688 51.6743 55.3141C51.9571 55.348 52.2173 55.3537 52.4436 55.3367C52.6699 55.3254 52.8792 55.2801 53.0771 55.2009C53.2864 55.1104 53.5127 54.9916 53.7559 54.8389L53.9143 55.0425L51.8779 56.6943ZM46.4928 51.7617C46.2948 51.5241 46.0855 51.3318 45.8593 51.196C45.6217 51.0603 45.3728 50.9811 45.1126 50.9471C44.858 50.9188 44.6035 50.9471 44.3433 51.0376C44.0718 51.1168 43.8172 51.2526 43.574 51.4449C43.4721 51.5241 43.3477 51.6372 43.2119 51.7843C43.0649 51.9201 42.9121 52.0728 42.7594 52.2368L45.2936 55.4498L45.6104 55.2009C45.9894 54.9011 46.2779 54.6013 46.4928 54.2959C46.7021 53.9791 46.8379 53.6793 46.9001 53.3908C46.9736 53.091 46.968 52.8025 46.8775 52.531C46.7983 52.2595 46.6738 52.0049 46.4928 51.7617Z" fill="#FFF7F3"/>
</svg>
