<svg width="59" height="30" viewBox="0 0 59 30" fill="none" xmlns="http://www.w3.org/2000/svg">
<path d="M0 10C0 4.47715 4.47306 0 9.99591 0C32.1578 0 59 0 59 0V29.6522H10C4.47716 29.6522 0 25.175 0 19.6522V10Z" fill="#131E43"/>
<path d="M29.8528 14.7762C29.8527 14.8605 29.7831 14.9296 29.6957 14.9295C29.6091 14.9294 29.5396 14.8609 29.5397 14.7758C29.5443 10.6987 26.9245 6.99477 23.0208 5.55862C22.9394 5.52944 22.8992 5.4414 22.9292 5.36215C22.9591 5.28218 23.0496 5.24301 23.131 5.27218C25.0869 5.99208 26.7598 7.2586 27.9676 8.93627C29.2037 10.6525 29.8551 12.6714 29.8528 14.7762Z" fill="#FEA423"/>
<path d="M19.6212 24.7519C19.6211 24.8363 19.5508 24.9053 19.4641 24.9052C13.7418 24.8991 9.09227 20.3458 9.09852 14.7552C9.09879 14.5137 9.10877 14.2701 9.12548 14.0301C9.1323 13.9457 9.20708 13.8825 9.29299 13.8885C9.37891 13.8951 9.44383 13.9672 9.43776 14.0522C9.42031 14.285 9.41183 14.5213 9.41157 14.7555C9.4055 20.1774 13.9155 24.5931 19.4645 24.599C19.5511 24.5984 19.6213 24.6676 19.6212 24.7519Z" fill="#FEA423"/>
<path d="M9.04489 9.25508C9.05534 9.26673 9.06955 9.25511 9.0815 9.25148C9.08225 9.25076 9.083 9.25076 9.08375 9.25003C9.083 9.25003 9.083 9.25076 9.08225 9.25076C9.08898 9.24858 9.09421 9.24568 9.10019 9.2435C9.0987 9.2435 9.09795 9.2435 9.09646 9.24423C9.99287 8.70553 11.1122 8.5969 11.9206 7.88575C11.9199 7.88647 11.9199 7.88647 11.9192 7.8872C11.9236 7.88357 11.9266 7.87993 11.9311 7.87703C11.9304 7.87776 11.9289 7.87848 11.9281 7.87921C12.4202 7.45281 12.7071 6.80438 13.2872 6.48063C13.2872 6.48063 13.2865 6.48063 13.2865 6.48136C13.6489 6.41556 13.9569 6.26606 14.2821 6.10786C14.6079 6.01293 14.9486 6.01911 15.2812 5.96782C13.532 6.74053 11.8803 7.84788 10.7497 9.38198C10.7512 9.38053 10.752 9.37835 10.7535 9.37689C9.88812 10.1753 8.73109 11.2657 9.0793 12.5548C9.07931 12.5541 9.07931 12.5533 9.07856 12.5533C9.09268 12.6232 9.10231 12.6952 9.11493 12.7665C9.11419 12.7636 9.11419 12.7614 9.11344 12.7592C9.12604 12.8509 9.15583 12.9396 9.17366 13.0298C9.17366 13.0284 9.17291 13.0276 9.17292 13.0262C9.17589 13.04 9.17812 13.0538 9.18109 13.0676C9.18034 13.0647 9.18035 13.0626 9.1796 13.0596C9.18853 13.0917 9.18476 13.1237 9.18697 13.1557C9.18697 13.1542 9.18697 13.152 9.18697 13.1513C9.18696 13.1622 9.18844 13.1731 9.18843 13.1847C9.18843 13.1833 9.18843 13.1818 9.18843 13.1797C9.19582 13.2589 9.09241 13.5308 9.23313 13.3004C9.23238 13.3012 9.23238 13.3012 9.23163 13.3019C9.23388 13.2975 9.23687 13.2932 9.23912 13.2888C9.23912 13.2888 9.23912 13.2895 9.23837 13.2895C9.24436 13.2779 9.25035 13.2677 9.25559 13.2568C9.25559 13.2568 9.25559 13.2575 9.25484 13.2575C9.38621 12.702 9.29948 12.0939 9.62506 11.5772C9.89978 11.1062 10.3627 10.751 10.4828 10.1992C10.817 9.36169 11.4296 8.6976 12.1087 8.10777C11.8861 8.72499 11.727 9.36774 11.3371 9.91425C10.8807 10.5043 10.723 11.1762 10.6236 11.8946C10.6266 11.9412 10.5828 12.2873 10.6681 12.1725C11.1564 11.1213 12.2826 10.9298 12.3432 9.52985C12.3432 9.52622 12.3439 9.52258 12.3439 9.51895L12.3439 9.51967C12.3439 9.51749 12.3439 9.51604 12.3439 9.51385C12.3439 9.51604 12.3439 9.51822 12.3432 9.5204C12.3803 9.06298 12.2643 8.61703 12.2864 8.1625C12.2857 8.16759 12.2857 8.17341 12.2849 8.1785C12.2864 8.1545 12.288 8.12905 12.2895 8.10432C12.2895 8.1065 12.2895 8.10869 12.2887 8.11014C12.2895 8.10505 12.2895 8.09923 12.2902 8.09487C12.2902 8.09778 12.2902 8.09996 12.2895 8.10287C12.7823 7.06556 15.847 5.77788 17.0225 5.4773C15.9006 5.90739 15.517 6.83209 14.6712 7.53302C14.672 7.53229 14.6727 7.53157 14.6735 7.53084C14.6705 7.53375 14.6675 7.53665 14.6645 7.53883C14.6653 7.5381 14.666 7.5381 14.666 7.53738C14.6615 7.54174 14.657 7.54537 14.6526 7.549C14.6548 7.54827 14.6563 7.54609 14.6578 7.54464C14.295 7.91735 13.9285 8.30606 13.6299 8.73121C13.427 9.10772 13.3869 9.54914 13.1519 9.91181C13.1527 9.91108 13.1534 9.90963 13.1541 9.9089C12.8607 10.3835 13.0411 10.1553 13.3028 9.9527C13.6482 9.72397 14.0168 9.52363 14.345 9.27015C14.345 9.27015 14.345 9.27015 14.3443 9.27015C14.3458 9.2687 14.348 9.26725 14.3495 9.26507C14.3488 9.26507 14.3488 9.26579 14.348 9.26579C16.2608 7.87362 15.1193 7.77422 15.9068 6.41722L15.906 6.41795C15.912 6.41068 15.9172 6.40269 15.924 6.39542C15.9225 6.3976 15.921 6.39978 15.9195 6.40051C15.9232 6.39615 15.9262 6.39179 15.93 6.38743C15.9292 6.38815 15.9285 6.38888 15.9285 6.38888C15.9988 6.31986 16.0721 6.25303 16.1476 6.18838C16.1446 6.19129 16.1409 6.19419 16.1371 6.1971C16.1431 6.19274 16.1483 6.18766 16.1543 6.18257C16.1528 6.18402 16.1513 6.18475 16.1498 6.1862C16.1536 6.1833 16.1573 6.18112 16.1596 6.17821C16.1588 6.17821 16.1588 6.17894 16.1581 6.17894C16.5462 5.8368 17.0254 5.63003 17.4933 5.41525C17.4918 5.41598 17.4896 5.41743 17.4881 5.41816C17.9059 5.22005 18.3939 5.18711 18.8519 5.13305C18.8512 5.13305 18.8497 5.13305 18.8489 5.13305C18.8541 5.13305 18.8579 5.13233 18.8631 5.13161C18.8594 5.1316 18.8564 5.13233 18.8527 5.13232C19.2591 5.08839 19.6686 5.07137 20.0765 5.07035C20.353 5.06991 20.6294 5.07675 20.9051 5.08868C21.2764 5.10507 21.6462 5.12947 22.0145 5.15458C22.1946 5.16641 22.3738 5.17897 22.5524 5.19152C22.5853 5.16828 22.5989 5.0752 22.5473 5.06569C22.5197 5.0613 22.4345 5.05248 22.4353 5.05248C22.3307 5.04001 21.9063 4.99883 21.4618 4.95909C21.101 4.92743 20.7207 4.90739 20.5341 4.82356C20.5378 4.82574 20.5423 4.8272 20.546 4.82939C19.8425 4.55518 19.368 3.95613 18.7199 3.60125C16.5191 2.72836 14.4547 4.72984 12.2362 4.34639C12.2235 4.3362 12.207 4.35654 12.2197 4.36601C12.2212 4.36747 12.2227 4.36892 12.2242 4.37038C12.2242 4.37038 12.2242 4.37038 12.2242 4.36965C12.8619 4.68452 13.5661 4.9449 14.2931 4.94276C14.2901 4.94276 14.2871 4.94276 14.2834 4.94203C14.8011 4.95567 15.31 4.8762 15.8234 4.83311C15.8189 4.83311 15.8151 4.83383 15.8114 4.83382C17.7078 4.71292 18.6837 3.90231 20.5078 4.92026C19.5739 4.94327 18.6228 4.92917 17.7155 5.17621C17.717 5.17621 17.7192 5.17549 17.7207 5.17549C17.1363 5.29487 16.5414 5.42879 15.9876 5.64711C15.9898 5.64566 15.9921 5.64494 15.9943 5.64348C15.3806 5.92866 14.6768 5.93446 14.0134 5.83848C12.4955 5.61869 11.1855 6.4944 10.3855 7.69066C9.93291 8.20728 9.45044 8.7166 9.04489 9.25508ZM9.24703 12.8961C9.21876 12.7819 9.21217 12.6633 9.19064 12.5476C9.19063 12.5491 9.19138 12.5513 9.19138 12.5527C9.1847 12.5149 9.17801 12.4771 9.16909 12.44C9.16909 12.44 9.16909 12.44 9.16909 12.4407C8.97445 11.4434 9.6741 10.4819 10.41 9.85799C10.077 10.2831 9.65297 10.6725 9.4798 11.1938C9.4798 11.193 9.4798 11.193 9.4798 11.1923C9.46705 11.2301 9.45506 11.2672 9.44232 11.305C9.44306 11.3035 9.44306 11.3028 9.44381 11.3014C9.36955 11.566 9.25122 11.8233 9.2397 12.1004C9.2397 12.099 9.2397 12.0975 9.2397 12.0961C9.2397 12.099 9.2397 12.1019 9.23895 12.1048C9.23895 12.1041 9.23895 12.1026 9.23895 12.1019C9.23819 12.1164 9.23668 12.1295 9.23592 12.1441C9.23592 12.1404 9.23667 12.1382 9.23667 12.1346C9.23363 12.1862 9.23133 12.2371 9.22828 12.2888C9.22828 12.288 9.22828 12.2873 9.22828 12.2866C9.22828 12.2895 9.22753 12.2924 9.22753 12.2953C9.22753 12.2946 9.22753 12.2939 9.22753 12.2939C9.22297 12.3608 9.22364 12.4277 9.22058 12.496C9.22058 12.4946 9.22058 12.4924 9.22133 12.491C9.22133 12.4939 9.22058 12.496 9.22057 12.4997C9.22058 12.499 9.22058 12.4982 9.22058 12.4975C9.20399 12.632 9.23074 12.763 9.24703 12.8961ZM10.1954 10.681C9.8295 11.1519 9.39417 11.6017 9.30681 12.2139C9.34545 11.742 9.53499 11.276 9.75661 10.858C9.75362 10.8624 9.75063 10.866 9.74763 10.8697C9.99087 10.4946 10.311 10.1764 10.5774 9.8189C10.4202 10.0944 10.3556 10.4092 10.1954 10.681ZM12.1701 8.65766C12.1708 8.6613 12.1716 8.66639 12.173 8.67075C12.1716 8.66493 12.1708 8.65984 12.1693 8.65402C12.1693 8.65402 12.1693 8.65402 12.1693 8.65475C12.1693 8.65402 12.1693 8.65329 12.1693 8.65184C12.1693 8.65402 12.1701 8.6562 12.1701 8.65766ZM12.1574 8.59292C12.4817 9.95837 11.839 10.7213 10.9034 11.6127C10.9281 11.5487 10.9454 11.4833 10.9708 11.4193C10.9693 11.4222 10.9686 11.4252 10.9671 11.4281C10.9798 11.3968 10.9926 11.367 11.0045 11.3365C11.0038 11.3372 11.0038 11.3386 11.003 11.3401C11.1162 11.0544 11.183 10.749 11.4022 10.5172C11.4014 10.518 11.4014 10.5187 11.4014 10.5194C11.8959 9.97593 12.0483 9.27717 12.1567 8.58055C12.1567 8.58492 12.1567 8.58928 12.1574 8.59292ZM11.3313 10.4575C10.9872 10.8346 10.9858 11.3801 10.7448 11.8046C10.8089 10.5486 11.8021 9.66601 12.0717 8.47137C11.9513 9.1738 11.8071 9.89147 11.3313 10.4575ZM13.5127 9.30273C13.512 9.30418 13.512 9.30491 13.512 9.30563C13.6935 8.60473 14.2679 8.09405 14.7579 7.58402C14.7564 7.58547 14.7549 7.58693 14.7534 7.58838C14.8065 7.54334 14.8618 7.49977 14.9149 7.454C14.9134 7.45546 14.9119 7.45691 14.9104 7.45764C14.9119 7.45691 14.9134 7.45546 14.9142 7.45473C14.6073 7.92787 14.334 8.4214 14.0085 8.88143C14.0115 8.87852 14.013 8.87416 14.016 8.87053C13.8259 9.15324 13.6216 9.42357 13.3875 9.67351C13.4452 9.55575 13.4715 9.42559 13.5127 9.30273ZM13.596 9.67155C13.5952 9.67227 13.5945 9.673 13.593 9.67373C13.5945 9.67227 13.5952 9.67155 13.596 9.67155C13.596 9.67155 13.596 9.67082 13.596 9.67155ZM15.3438 8.10247C14.9456 8.76533 14.2308 9.21112 13.6087 9.66138C13.6094 9.66065 13.6102 9.66065 13.6102 9.65993C13.5227 9.72602 13.4337 9.7892 13.3403 9.84582C14.2296 8.95512 14.7389 7.79419 15.5342 6.83283C15.403 7.24652 15.5377 7.69539 15.3438 8.10247ZM18.1745 4.29087C18.1774 4.29014 18.1812 4.28942 18.1834 4.28869C18.0698 4.31257 17.954 4.33136 17.8412 4.35961C17.8419 4.35961 17.8419 4.35961 17.8426 4.35961C17.6596 4.39796 17.4876 4.47414 17.3038 4.50595C17.3068 4.50522 17.3098 4.50523 17.3135 4.50378C17.2687 4.51391 17.2231 4.52113 17.1783 4.53127C17.179 4.53127 17.1797 4.53127 17.1797 4.53054C17.1446 4.53851 17.1095 4.54574 17.0744 4.5537C17.0781 4.55298 17.0818 4.55226 17.0848 4.55153C17.0512 4.5595 17.0176 4.56674 16.9839 4.57397C16.9877 4.57398 16.9907 4.57325 16.9937 4.57253C16.9757 4.57615 16.9585 4.58049 16.9399 4.58484C16.9428 4.58411 16.9451 4.58339 16.9481 4.58339C15.8421 4.75895 14.716 4.91848 13.597 4.76602C13.5977 4.76602 13.5985 4.76602 13.5992 4.76603C13.5962 4.76602 13.594 4.76529 13.591 4.76529C13.5925 4.76529 13.594 4.76602 13.5947 4.76602C13.3602 4.70977 13.1279 4.64552 12.8956 4.58128C13.2669 4.6384 13.6501 4.64899 14.0245 4.61084C14.0238 4.61084 14.023 4.61084 14.0223 4.61084C14.0395 4.60867 14.0574 4.60651 14.0746 4.60507C14.0738 4.60507 14.0731 4.60507 14.0723 4.60507C14.1149 4.60002 14.1575 4.59425 14.2009 4.58921C14.1971 4.58993 14.1941 4.58993 14.1904 4.59065C14.564 4.55904 14.925 4.45324 15.2941 4.39763C15.2919 4.39836 15.2881 4.39835 15.2852 4.39908C15.2896 4.39836 15.2941 4.39836 15.2979 4.39764C15.2971 4.39764 15.2956 4.39764 15.2949 4.39836C15.3001 4.39764 15.3053 4.39692 15.3098 4.3962C15.3083 4.39619 15.3061 4.39692 15.3053 4.39692C15.3083 4.39619 15.3121 4.3962 15.3158 4.39548C15.3136 4.39547 15.3121 4.3962 15.3098 4.3962C15.3121 4.3962 15.315 4.39547 15.3173 4.39548C15.3165 4.39548 15.3165 4.39548 15.3165 4.39548C15.3195 4.39475 15.3233 4.39476 15.327 4.39403C15.3225 4.39476 15.318 4.39548 15.3143 4.39547C16.2715 4.30776 17.2338 4.33423 18.1924 4.2887C18.1857 4.28797 18.1804 4.28942 18.1745 4.29087ZM17.3123 4.22232C16.1857 4.17167 15.0835 4.34141 13.9835 4.53952C13.9842 4.53952 13.9865 4.5388 13.9887 4.5388C13.985 4.53952 13.982 4.53952 13.9783 4.54024C13.979 4.54024 13.9798 4.54024 13.9813 4.53952C13.5456 4.58415 13.1056 4.55532 12.6738 4.49304C13.4949 4.49537 14.308 4.34132 15.0644 4.02502C15.0614 4.02647 15.057 4.02865 15.0532 4.0301C15.3059 3.92782 15.5727 3.86483 15.8268 3.76473C15.8223 3.76618 15.8186 3.76836 15.8148 3.76909C16.5578 3.49132 17.3901 3.49439 18.1738 3.53522C18.7976 3.62679 19.2505 4.09564 19.6931 4.49321C18.9479 4.10477 18.1223 4.18754 17.3123 4.22232ZM12.0143 7.63057C11.3972 8.2852 10.5041 8.57153 9.66026 8.82809C10.7191 8.06993 11.7719 7.29285 12.8814 6.60602C12.5889 6.94462 12.3136 7.29779 12.0143 7.63057ZM13.8374 6.23394C13.6819 6.33777 13.4966 6.37321 13.315 6.40284C13.5086 6.33104 13.7036 6.26288 13.8957 6.18891C13.8763 6.20416 13.8568 6.21941 13.8374 6.23394ZM9.9791 8.32297C10.9487 7.10798 12.0052 5.75126 13.7735 5.9495C13.772 5.9495 13.7712 5.94877 13.7697 5.94877C13.8795 5.97143 13.9901 5.989 14.0991 6.01385C12.3623 6.48401 11.0332 7.79753 9.58335 8.78437C9.71428 8.6296 9.86087 8.48575 9.9791 8.32297Z" fill="#FEA423"/>
<path d="M30.1075 24.1856C30.1075 24.2038 30.1045 24.222 30.0978 24.2394C30.0678 24.3187 29.9773 24.3578 29.8959 24.3287C27.94 23.6088 26.2671 22.3422 25.0593 20.6646C23.824 18.949 23.1725 16.9301 23.1749 14.8254C23.175 14.741 23.2445 14.672 23.3319 14.6721C23.4186 14.6722 23.4888 14.7414 23.4887 14.8257C23.4841 18.9029 26.1032 22.6068 30.0068 24.0422C30.0696 24.0656 30.1076 24.1238 30.1075 24.1856Z" fill="#FEA423"/>
<path d="M43.9284 14.8471C43.9281 15.0885 43.9189 15.3322 43.9014 15.5721C43.8954 15.6565 43.8198 15.7197 43.7339 15.7138C43.648 15.7071 43.5831 15.6351 43.5891 15.55C43.6066 15.3173 43.6151 15.0809 43.6153 14.8467C43.6214 9.42485 39.1114 5.0091 33.5624 5.00322C33.4765 5.00312 33.4056 4.93468 33.4057 4.84959C33.4058 4.76523 33.4761 4.69621 33.5628 4.6963C39.2851 4.70309 43.9346 9.25645 43.9284 14.8471Z" fill="#FEA423"/>
<path d="M43.9826 20.3472C43.9722 20.3348 43.958 20.3464 43.946 20.3501C43.946 20.3508 43.9445 20.3508 43.9438 20.3515C43.9445 20.3515 43.9445 20.3508 43.9452 20.3508C43.9385 20.353 43.9333 20.3559 43.9273 20.3588C43.9288 20.358 43.9296 20.358 43.931 20.3573C43.0354 20.896 41.9153 21.0046 41.1069 21.7158C41.1076 21.7151 41.1076 21.7151 41.1083 21.7143C41.1039 21.718 41.1009 21.7216 41.0964 21.7252C41.0971 21.7245 41.0986 21.7238 41.0994 21.7231C40.6073 22.1495 40.3204 22.7972 39.7403 23.1209C39.7403 23.1209 39.741 23.1209 39.741 23.1202C39.3793 23.186 39.0706 23.3355 38.7454 23.4937C38.4196 23.5886 38.0789 23.5832 37.7471 23.6337C39.4955 22.861 41.1472 21.7537 42.2778 20.2203C42.277 20.221 42.2755 20.2232 42.274 20.2247C43.1394 19.4263 44.2964 18.3359 43.9482 17.0467C43.9482 17.0475 43.9482 17.0482 43.9489 17.0489C43.9348 16.9784 43.9252 16.9064 43.9126 16.8351C43.9133 16.838 43.9133 16.8402 43.9141 16.8431C43.9015 16.7514 43.8724 16.6619 43.8538 16.5717C43.8538 16.5732 43.8546 16.5739 43.8546 16.5754C43.8516 16.5615 43.8494 16.5477 43.8464 16.5339C43.8472 16.5368 43.8472 16.539 43.8479 16.5419C43.839 16.5099 43.8427 16.4779 43.8405 16.4459C43.8405 16.4473 43.8405 16.4495 43.8405 16.451C43.8405 16.4401 43.8398 16.4292 43.8398 16.4175C43.8398 16.4183 43.8398 16.4197 43.8398 16.4219C43.8317 16.3426 43.9351 16.0714 43.7951 16.3018C43.7951 16.3011 43.7951 16.3004 43.7959 16.2997C43.7936 16.304 43.7906 16.3084 43.7884 16.3135C43.7884 16.3135 43.7884 16.3127 43.7891 16.3127C43.7831 16.3236 43.7772 16.3338 43.7719 16.3447C43.7719 16.3447 43.7719 16.344 43.7727 16.344C43.6413 16.9002 43.728 17.5083 43.4024 18.0244C43.1277 18.4961 42.6648 18.8505 42.5447 19.4031L42.5447 19.4024C42.2105 20.2399 41.5979 20.9039 40.9188 21.4945C41.1414 20.8766 41.3005 20.2338 41.6904 19.6873C42.1468 19.0972 42.3052 18.4254 42.4039 17.7069C42.4009 17.6604 42.4447 17.3142 42.3594 17.4291C41.8718 18.4802 40.7449 18.6717 40.6843 20.0717C40.6843 20.0753 40.6836 20.0797 40.6836 20.0826L40.6836 20.0819C40.6836 20.0841 40.6836 20.0855 40.6828 20.0877C40.6828 20.0855 40.6828 20.0833 40.6836 20.0811C40.6464 20.5386 40.7625 20.9845 40.7403 21.439C40.7411 21.434 40.7411 21.4281 40.7418 21.423C40.7403 21.4478 40.7388 21.4725 40.7373 21.4972C40.7373 21.495 40.7373 21.4936 40.738 21.4914C40.7373 21.4965 40.7373 21.5023 40.7365 21.5067C40.7365 21.5045 40.7365 21.5016 40.7373 21.4987C40.2452 22.536 37.1805 23.8244 36.0042 24.1242C37.1261 23.6942 37.5097 22.7695 38.3555 22.0685C38.3548 22.0693 38.354 22.07 38.3533 22.0707C38.3563 22.0678 38.3592 22.0656 38.3622 22.0627C38.3615 22.0634 38.3607 22.0634 38.3607 22.0642C38.3652 22.0598 38.3705 22.0562 38.3742 22.0525C38.372 22.054 38.3705 22.0555 38.369 22.0569C38.7317 21.6842 39.0983 21.2955 39.3969 20.8711C39.5998 20.4938 39.6398 20.0524 39.8749 19.6897C39.8741 19.6905 39.8734 19.6919 39.8726 19.6926C40.166 19.2188 39.9857 19.4469 39.724 19.6489C39.3785 19.8776 39.01 20.0786 38.6825 20.3321C38.6825 20.3321 38.6825 20.3321 38.6832 20.3321C38.681 20.3328 38.6787 20.3343 38.6772 20.3365C38.678 20.3365 38.678 20.3358 38.6787 20.3358C36.766 21.7279 37.9075 21.8273 37.12 23.1843L37.1207 23.1836C37.1148 23.1916 37.1095 23.1989 37.1035 23.2061C37.1043 23.2039 37.1058 23.2025 37.1073 23.201C37.1035 23.2054 37.1005 23.2098 37.0968 23.2148C37.0975 23.2141 37.0983 23.2134 37.0983 23.2127C37.028 23.2824 36.9547 23.3485 36.8792 23.4132C36.8822 23.4103 36.8859 23.4074 36.8896 23.4044C36.8836 23.4095 36.8784 23.4139 36.8724 23.419C36.8739 23.4175 36.8754 23.4168 36.8769 23.4153C36.8732 23.4182 36.8702 23.4212 36.8672 23.4233C36.8679 23.4233 36.8679 23.4226 36.8687 23.4226C36.4805 23.7655 36.0014 23.9722 35.5335 24.1863C35.5357 24.1856 35.5372 24.1841 35.5387 24.1834C35.1208 24.3815 34.6329 24.4144 34.1748 24.4685C34.1756 24.4685 34.1771 24.4685 34.1778 24.4685C34.1726 24.4685 34.1689 24.4692 34.1636 24.4699C34.1674 24.4699 34.1704 24.4692 34.1741 24.4692C33.7676 24.5132 33.3589 24.5309 32.9502 24.5319C32.6738 24.5324 32.3974 24.5248 32.1217 24.5129C31.7504 24.4965 31.3806 24.4728 31.0122 24.4477C30.8322 24.4351 30.6529 24.4226 30.4744 24.41C30.4415 24.4333 30.4286 24.5263 30.4794 24.5359C30.5071 24.541 30.5922 24.5491 30.5915 24.5491C30.6961 24.5615 31.1204 24.6027 31.5649 24.6425C31.9265 24.6741 32.306 24.6942 32.4934 24.778C32.489 24.7758 32.4845 24.7743 32.4815 24.7729C33.1842 25.0464 33.6588 25.6454 34.3069 26.0003C36.5077 26.8732 38.572 24.8717 40.7906 25.2552C40.8033 25.2653 40.8205 25.245 40.8071 25.2355C40.8056 25.2341 40.8041 25.2326 40.8026 25.2312C40.8026 25.2312 40.8026 25.2312 40.8026 25.2319C40.1656 24.917 39.4606 24.6566 38.7336 24.6588C38.7366 24.6588 38.7396 24.6588 38.7434 24.6595C38.2256 24.6459 37.7167 24.7253 37.2034 24.7684C37.2079 24.7684 37.2124 24.7677 37.2154 24.7677C35.319 24.8893 34.3431 25.6992 32.519 24.6813C33.4529 24.659 34.404 24.6724 35.3113 24.4253C35.3098 24.4253 35.3076 24.4261 35.3061 24.4261C35.8904 24.3067 36.4853 24.1728 37.0392 23.9544C37.0369 23.9559 37.0355 23.9566 37.0325 23.9581C37.6469 23.6736 38.35 23.6671 39.0133 23.7631C40.5313 23.9829 41.8412 23.1071 42.6412 21.9109C43.0946 21.3943 43.5771 20.885 43.9826 20.3472ZM43.7805 16.7055C43.8087 16.8204 43.8153 16.9382 43.8369 17.0539C43.8369 17.0524 43.8361 17.0503 43.8361 17.0495C43.8428 17.0866 43.8502 17.1245 43.8584 17.1616C43.8584 17.1616 43.8584 17.1616 43.8584 17.1608C44.053 18.1581 43.3534 19.1196 42.6175 19.7436C42.9505 19.3184 43.3745 18.9291 43.5485 18.4078C43.5485 18.4085 43.5485 18.4085 43.5484 18.4092C43.5604 18.3714 43.5724 18.3344 43.5852 18.2966C43.5844 18.298 43.5844 18.2987 43.5837 18.3002C43.6579 18.0355 43.7763 17.7782 43.7878 17.5011C43.7878 17.5026 43.7878 17.504 43.7878 17.5055C43.7878 17.5026 43.7878 17.4997 43.7886 17.4975C43.7886 17.4982 43.7886 17.4989 43.7885 17.4997C43.7893 17.4859 43.7908 17.472 43.7916 17.4575C43.7916 17.4611 43.7908 17.464 43.7908 17.4669C43.7939 17.416 43.7962 17.3644 43.7992 17.3135C43.7992 17.3142 43.7992 17.3142 43.7992 17.315C43.7992 17.3128 43.8 17.3091 43.8 17.3062C43.8 17.307 43.8 17.3077 43.8 17.3077C43.8053 17.2408 43.8039 17.1739 43.8069 17.107C43.8069 17.1077 43.8069 17.1099 43.8062 17.1113C43.8062 17.1084 43.8069 17.1062 43.8069 17.1026C43.8069 17.1033 43.8069 17.1041 43.8069 17.1048C43.8235 16.9695 43.7968 16.8386 43.7805 16.7055ZM42.8321 18.9205C43.198 18.4503 43.6333 17.9999 43.7207 17.3876C43.6828 17.8596 43.4933 18.3256 43.2709 18.7435C43.2739 18.7391 43.2769 18.7355 43.2799 18.7319C43.0366 19.1069 42.7165 19.4251 42.4501 19.7834C42.6073 19.5079 42.6719 19.1923 42.8321 18.9205ZM40.8574 20.9439C40.8567 20.9403 40.8559 20.9352 40.8545 20.9315C40.8559 20.9366 40.8567 20.9424 40.8582 20.9475C40.8582 20.9475 40.8582 20.9475 40.8582 20.9468C40.8582 20.9475 40.8582 20.9483 40.8589 20.9497C40.8582 20.9475 40.8574 20.9453 40.8574 20.9439ZM40.8701 21.0086C40.5458 19.6439 41.1885 18.8802 42.1241 17.9896C42.0994 18.0528 42.0822 18.1182 42.0567 18.1822C42.0582 18.1793 42.0589 18.1764 42.0604 18.1742C42.0477 18.2047 42.035 18.2346 42.023 18.2658C42.0237 18.2644 42.0237 18.2629 42.0245 18.2615C41.9113 18.5472 41.8445 18.8525 41.6253 19.0843C41.6261 19.0836 41.6261 19.0829 41.6268 19.0821C41.1316 19.6256 40.9792 20.3244 40.8708 21.021C40.8708 21.0166 40.8708 21.0123 40.8701 21.0086ZM41.6962 19.144C42.0403 18.7669 42.0417 18.2215 42.2835 17.797C42.2186 19.0529 41.2254 19.9355 40.9558 21.1302C41.0762 20.4277 41.2204 19.7101 41.6962 19.144ZM39.5148 20.2988C39.5155 20.2981 39.5155 20.2974 39.5163 20.2959C39.334 20.9968 38.7596 21.5075 38.2704 22.0175C38.2711 22.0161 38.2726 22.0146 38.2741 22.0132C38.221 22.0582 38.1657 22.1018 38.1126 22.1475C38.1141 22.1468 38.1156 22.1454 38.1171 22.1439C38.1156 22.1454 38.1148 22.1468 38.1133 22.1468C38.4202 21.6744 38.6935 21.1809 39.019 20.7201C39.016 20.723 39.0145 20.7274 39.0115 20.731C39.2016 20.4483 39.4059 20.178 39.64 19.9288C39.5823 20.0458 39.556 20.176 39.5148 20.2988ZM39.4315 19.93C39.4323 19.93 39.433 19.9293 39.4345 19.9285C39.433 19.93 39.4323 19.93 39.4315 19.93C39.4315 19.93 39.4315 19.9307 39.4315 19.93ZM37.6837 21.4991C38.0819 20.8369 38.7967 20.3904 39.4188 19.9409C39.4181 19.9416 39.4173 19.9416 39.4173 19.9416C39.5048 19.8755 39.5938 19.8124 39.6872 19.7557C38.7979 20.6464 38.2886 21.8074 37.4933 22.7687C37.6245 22.355 37.4898 21.9062 37.6837 21.4991ZM34.8531 25.3107C34.8501 25.3114 34.8471 25.3121 34.8441 25.3129C34.9584 25.289 35.0735 25.2702 35.1863 25.2419C35.1856 25.2419 35.1856 25.2419 35.1849 25.2419C35.3679 25.2036 35.5399 25.1274 35.7244 25.0956C35.7207 25.0963 35.7177 25.097 35.714 25.0985C35.7588 25.0876 35.8044 25.0804 35.8492 25.0703C35.8485 25.0703 35.8478 25.0703 35.8478 25.071C35.8829 25.0638 35.918 25.0558 35.9531 25.0478C35.9494 25.0486 35.9464 25.0493 35.9427 25.05C35.9763 25.042 36.0099 25.0348 36.0436 25.0276C36.0398 25.0283 36.0368 25.029 36.0338 25.0297C36.0518 25.0254 36.069 25.0211 36.0876 25.0174C36.0847 25.0182 36.0824 25.0182 36.0802 25.0182C37.1854 24.8426 38.3122 24.6831 39.4305 24.8363C39.4298 24.8363 39.429 24.8362 39.4283 24.8355C39.4313 24.8363 39.4335 24.837 39.4365 24.837C39.435 24.837 39.4335 24.8363 39.4328 24.8363C39.6673 24.8918 39.8996 24.956 40.1326 25.021C39.7606 24.9639 39.3774 24.9526 39.003 24.9907C39.0037 24.9907 39.0045 24.9907 39.0052 24.9907C38.988 24.9929 38.9701 24.995 38.9529 24.9972C38.9537 24.9972 38.9544 24.9972 38.9559 24.9972C38.9126 25.0015 38.87 25.0073 38.8266 25.0123C38.8304 25.0116 38.8334 25.0116 38.8371 25.0109C38.4635 25.0432 38.1025 25.1483 37.7334 25.2039C37.7356 25.2039 37.7394 25.2039 37.7423 25.2032C37.7379 25.2039 37.7341 25.2039 37.7296 25.2039C37.7304 25.2039 37.7319 25.2039 37.7326 25.2039C37.7274 25.2039 37.7229 25.2046 37.7177 25.2054C37.7192 25.2054 37.7214 25.2046 37.7229 25.2046C37.7192 25.2054 37.7154 25.2053 37.7117 25.2061C37.7139 25.2061 37.7154 25.2053 37.7177 25.2054C37.7154 25.2053 37.7125 25.2061 37.7102 25.2061C37.711 25.2061 37.711 25.2061 37.7117 25.2061C37.708 25.2068 37.7042 25.2068 37.7005 25.2075C37.705 25.2068 37.7095 25.2061 37.7132 25.2061C36.756 25.2945 35.7937 25.2673 34.8351 25.3128C34.8418 25.3136 34.8471 25.3121 34.8531 25.3107ZM35.7152 25.3792C36.8418 25.4299 37.944 25.2609 39.044 25.062C39.0433 25.062 39.041 25.0628 39.0388 25.0627C39.0425 25.062 39.0455 25.062 39.0492 25.0613C39.0485 25.0613 39.0477 25.0613 39.0462 25.0613C39.4819 25.0167 39.9219 25.0455 40.3544 25.1078C39.5326 25.1055 38.7195 25.2602 37.9631 25.5758C37.9668 25.5743 37.9706 25.5722 37.9743 25.5714C37.7216 25.6737 37.4548 25.736 37.2007 25.8361C37.2052 25.8354 37.2089 25.8332 37.2127 25.8317C36.4697 26.1102 35.6374 26.1072 34.8537 26.0656C34.2299 25.974 33.777 25.5052 33.3344 25.1076C34.0803 25.4968 34.9052 25.414 35.7152 25.3792ZM41.0132 21.971C41.6303 21.3163 42.5242 21.03 43.3672 20.7735C42.3085 21.5316 41.2556 22.3087 40.1461 22.9955C40.4386 22.6569 40.7139 22.3038 41.0132 21.971ZM39.1901 23.3676C39.3456 23.2638 39.5309 23.2291 39.7125 23.1987C39.5189 23.2705 39.3239 23.3387 39.1318 23.4126C39.1512 23.3974 39.1707 23.3821 39.1901 23.3676ZM43.0484 21.2786C42.0788 22.4936 41.0223 23.851 39.254 23.6528C39.2555 23.6528 39.257 23.6535 39.2578 23.6535C39.148 23.6308 39.0374 23.6125 38.9284 23.5877C40.6652 23.1175 41.9943 21.804 43.4441 20.8179C43.3132 20.9719 43.1666 21.1158 43.0484 21.2786Z" fill="#FEA423"/>
<path d="M21.4483 24.0902C21.4998 24.0902 21.5499 24.0997 21.5977 24.1194C21.6455 24.1384 21.6873 24.1661 21.7239 24.2017C21.7604 24.2374 21.7888 24.2789 21.8081 24.3255C21.8283 24.372 21.8379 24.4208 21.8379 24.4717C21.8378 24.5219 21.828 24.5706 21.8078 24.6171C21.7883 24.6636 21.7599 24.705 21.7233 24.7406C21.6866 24.7762 21.6447 24.8038 21.5969 24.8234C21.5491 24.8423 21.499 24.8524 21.4474 24.8524C21.3959 24.8523 21.3466 24.8421 21.2988 24.8231C21.251 24.8034 21.2084 24.7757 21.1719 24.7401C21.1353 24.7044 21.1077 24.6629 21.0876 24.6163C21.0682 24.5698 21.0578 24.521 21.0579 24.4708C21.0579 24.4199 21.0684 24.3712 21.0879 24.3247C21.1081 24.2782 21.1358 24.2367 21.1725 24.2011C21.2091 24.1655 21.2517 24.138 21.2996 24.1191C21.3474 24.0995 21.3967 24.0901 21.4483 24.0902Z" fill="#FEA423"/>
<path d="M31.4237 4.6635C31.4752 4.66355 31.5253 4.67306 31.5731 4.69275C31.6209 4.71244 31.6627 4.73939 31.6993 4.77507C31.7358 4.81147 31.7642 4.85223 31.7836 4.89879C31.8037 4.94609 31.8133 4.9941 31.8133 5.04501C31.8132 5.09519 31.8034 5.14391 31.7832 5.19043C31.7637 5.23769 31.7353 5.27838 31.6987 5.31398C31.662 5.34958 31.6201 5.37717 31.5723 5.39676C31.5245 5.41562 31.4744 5.42575 31.4228 5.42569C31.3713 5.42564 31.3212 5.4154 31.2734 5.39644C31.2257 5.37675 31.1838 5.34907 31.1473 5.3134C31.1107 5.27772 31.0824 5.23696 31.063 5.18967C31.0429 5.1431 31.0332 5.09436 31.0333 5.04418C31.0333 4.99327 31.0431 4.94528 31.0633 4.89803C31.0828 4.8515 31.1112 4.81081 31.1479 4.77448C31.1845 4.73888 31.2264 4.71202 31.2742 4.69243C31.3221 4.67285 31.3721 4.66344 31.4237 4.6635Z" fill="#FEA423"/>
<path d="M34.8531 6.17074L35.2535 6.23516C35.4283 6.26299 35.5687 6.31914 35.6747 6.40434C35.7799 6.49027 35.8493 6.59071 35.8836 6.70711C35.917 6.82206 35.9236 6.93916 35.9041 7.05914C35.8838 7.19148 35.8336 7.30343 35.7543 7.39644C35.6742 7.48799 35.5755 7.55116 35.4582 7.58813C35.3423 7.62655 35.2206 7.63588 35.0936 7.61683L34.6274 7.54361L34.8531 6.17074ZM35.0878 7.40155C35.1894 7.41766 35.2821 7.41267 35.3658 7.3873C35.4495 7.36048 35.5183 7.31473 35.5721 7.25079C35.626 7.18685 35.6605 7.10688 35.677 7.00944C35.6951 6.9011 35.6862 6.80799 35.6504 6.73014C35.6161 6.65083 35.5654 6.5875 35.4982 6.54088C35.4325 6.49427 35.3593 6.4651 35.2802 6.45338L35.0441 6.41531L34.8846 7.36934L35.0878 7.40155Z" fill="#FFF7F3"/>
<path d="M38.0979 7.20442L37.9961 7.39632L37.3599 7.07273L37.1832 7.40127L37.7507 7.68988L37.6489 7.88178L37.0814 7.59317L36.9047 7.92753L37.5678 8.26279L37.4659 8.45177L36.6027 8.01449L37.2616 6.7788L38.0979 7.20442Z" fill="#FFF7F3"/>
<path d="M39.9876 8.77918L38.4747 9.35358L39.092 7.89094L39.2831 8.08024L38.8786 8.98455L39.7995 8.59279L39.9876 8.77918Z" fill="#FFF7F3"/>
<path d="M41.1233 10.6247L40.9259 10.7205L40.6068 10.0947L40.2689 10.2601L40.5522 10.8161L40.3549 10.9119L40.0716 10.3559L39.7218 10.5243L40.0528 11.1763L39.8584 11.2721L39.426 10.4221L40.7028 9.80094L41.1233 10.6247Z" fill="#FFF7F3"/>
<path d="M41.56 12.0754L40.3644 12.2662L40.4802 12.9441L40.265 12.9788L40.1136 12.0826L41.5244 11.8572L41.56 12.0754Z" fill="#FFF7F3"/>
<path d="M41.0001 13.8341C41.1294 13.8554 41.2429 13.9071 41.3407 13.9887C41.4399 14.0702 41.5138 14.1692 41.5615 14.2857C41.6092 14.4035 41.6217 14.5257 41.5999 14.6522C41.5774 14.778 41.5235 14.8893 41.4382 14.9866C41.3544 15.0833 41.2512 15.1537 41.1301 15.1987C41.0083 15.2451 40.8835 15.2573 40.7565 15.2361C40.6265 15.2141 40.5123 15.1631 40.413 15.0815C40.3137 15.0014 40.2421 14.9017 40.1982 14.7817C40.1527 14.6631 40.1409 14.5409 40.1627 14.4151C40.1853 14.2886 40.2369 14.1773 40.3185 14.0807C40.4 13.9855 40.501 13.9151 40.6206 13.8686C40.7416 13.8237 40.8687 13.8122 41.0001 13.8341ZM40.961 14.0581C40.8692 14.0442 40.7817 14.0521 40.698 14.0811C40.6143 14.1116 40.5433 14.1602 40.4857 14.2263C40.4273 14.2917 40.3906 14.3688 40.3748 14.456C40.3606 14.5411 40.3694 14.6233 40.4015 14.7033C40.4328 14.7826 40.4835 14.8496 40.5537 14.9042C40.6231 14.9603 40.7037 14.9953 40.7956 15.0092C40.8867 15.0246 40.9749 15.0167 41.0586 14.9862C41.1438 14.955 41.2149 14.9078 41.271 14.8439C41.3286 14.78 41.3653 14.7044 41.3818 14.6171C41.3953 14.5298 41.3865 14.4462 41.3552 14.3669C41.3231 14.2869 41.2724 14.2192 41.203 14.1631C41.1328 14.1085 41.0522 14.0735 40.961 14.0581Z" fill="#FFF7F3"/>
<path d="M40.7946 16.892C40.7182 17.0294 40.6225 17.1188 40.5074 17.1594C40.3915 17.2 40.2698 17.1868 40.1428 17.1212C40.0711 17.084 40.0114 17.0345 39.9637 16.9726C39.9174 16.9122 39.8921 16.8402 39.8862 16.7573C39.8803 16.6758 39.9043 16.5864 39.9582 16.4897L40.0571 16.3123L39.621 16.0821L39.7288 15.8873L40.9862 16.5461L40.7946 16.892ZM40.1524 16.5888C40.1224 16.6426 40.1089 16.692 40.1134 16.7371C40.1193 16.7837 40.1349 16.8222 40.1611 16.8535C40.1887 16.8841 40.2185 16.9089 40.2506 16.9264C40.3022 16.9533 40.3589 16.9621 40.421 16.9527C40.4845 16.9426 40.5383 16.899 40.5825 16.822L40.6843 16.6388L40.2512 16.4115L40.1524 16.5888Z" fill="#FFF7F3"/>
<path d="M39.115 18.9578L38.9598 18.8035L39.4684 18.3124L39.2027 18.0503L38.748 18.4861L38.5927 18.3318L39.0475 17.8959L38.7728 17.628L38.2403 18.1394L38.0881 17.988L38.7821 17.3196L39.7852 18.3098L39.115 18.9578Z" fill="#FFF7F3"/>
<path d="M36.684 18.8203L37.1977 19.1089L37.2186 19.0973L37.404 19.0073L37.1773 18.5765L37.3777 18.4749L38.0278 19.712L37.672 19.889C37.5307 19.9602 37.3992 19.9818 37.2774 19.9526C37.1542 19.9249 37.0594 19.8491 36.9937 19.7254C36.9542 19.6497 36.9341 19.5712 36.9342 19.4897C36.9328 19.4082 36.9576 19.3326 37.0092 19.2629L36.4507 18.9365L36.684 18.8203ZM37.5024 19.1965L37.317 19.2865C37.2378 19.3271 37.1906 19.378 37.1764 19.4405C37.1628 19.5023 37.1703 19.5605 37.2001 19.6151C37.2165 19.6456 37.2404 19.674 37.2717 19.6995C37.3016 19.7243 37.3397 19.7403 37.3852 19.7462C37.4315 19.7521 37.4809 19.7412 37.5347 19.7143L37.7261 19.6215L37.5024 19.1965Z" fill="#FFF7F3"/>
<path d="M34.8507 11.0782C34.7768 11.0781 34.7148 11.089 34.6654 11.11C34.6176 11.1318 34.5742 11.1623 34.5368 11.203C34.4949 11.2611 34.4738 11.392 34.4736 11.5956L34.4717 13.2858C34.4715 13.4626 34.4564 13.616 34.4264 13.7454C34.3964 13.8734 34.3559 13.9832 34.3065 14.074C34.2586 14.1656 34.2024 14.2397 34.1389 14.2978C34.0768 14.356 34.0117 14.4017 33.9445 14.4344C33.8764 14.467 33.8099 14.4895 33.7441 14.5011C33.6784 14.5126 33.6186 14.5184 33.5648 14.5183C33.4767 14.5182 33.4005 14.5065 33.3347 14.4832C33.269 14.4613 33.2138 14.4329 33.1705 14.3957C33.1264 14.3593 33.0936 14.3171 33.072 14.2705C33.0496 14.224 33.0392 14.176 33.0393 14.125C33.0393 14.0807 33.0461 14.0421 33.0603 14.0087C33.0761 13.9738 33.0963 13.9462 33.1202 13.9244C33.1441 13.9012 33.1718 13.8852 33.2039 13.875C33.2353 13.8634 33.2682 13.8576 33.3026 13.8577C33.3541 13.8577 33.3967 13.8709 33.431 13.8956C33.4669 13.9189 33.4952 13.9495 33.5176 13.9859C33.5415 14.0208 33.5608 14.0587 33.5772 14.0994C33.5951 14.1402 33.6115 14.178 33.6279 14.2129C33.6458 14.2479 33.6652 14.2784 33.6876 14.3032C33.7115 14.3265 33.7398 14.3382 33.7742 14.3382C33.7981 14.3382 33.8205 14.3317 33.843 14.3179C33.8669 14.3048 33.8878 14.2823 33.9058 14.2511C33.9253 14.2205 33.9417 14.1805 33.9538 14.1318C33.9658 14.0817 33.9718 14.0206 33.9719 13.9486L33.9745 11.5951C33.9746 11.4925 33.9717 11.4118 33.9658 11.3536C33.9599 11.2954 33.9458 11.2489 33.9241 11.2139C33.9122 11.1965 33.895 11.1805 33.8734 11.1644C33.851 11.147 33.8241 11.1324 33.7928 11.1207C33.7629 11.1076 33.73 11.0966 33.6942 11.0886C33.6583 11.0813 33.6232 11.0769 33.5896 11.0769L33.4641 11.0767L33.4642 10.9836L34.9794 10.9852L34.9793 11.0783L34.8507 11.0782Z" fill="#FFF7F3"/>
<path d="M37.7084 13.5598C37.7083 13.6922 37.6798 13.8158 37.6243 13.9321C37.5704 14.0484 37.4934 14.1501 37.3939 14.2373C37.2937 14.3245 37.1756 14.3934 37.038 14.4435C36.902 14.4957 36.7525 14.5217 36.5897 14.5215C36.4679 14.5214 36.3573 14.5104 36.258 14.4892C36.1601 14.4694 36.0712 14.4468 35.9921 14.422C35.9144 14.3972 35.8457 14.3746 35.7859 14.3549C35.7262 14.3337 35.6754 14.3227 35.6335 14.3227C35.5917 14.3227 35.5573 14.3372 35.5319 14.3662C35.5057 14.3938 35.487 14.4447 35.4749 14.5204L35.3793 14.5203L35.3806 13.3333L35.4763 13.3334C35.4977 13.5124 35.5416 13.6644 35.6072 13.7903C35.6729 13.9147 35.7519 14.0166 35.846 14.096C35.9415 14.1739 36.0476 14.2315 36.1656 14.268C36.2828 14.303 36.4046 14.3206 36.5301 14.3207C36.6392 14.3209 36.7378 14.3057 36.826 14.2745C36.9135 14.2441 36.9875 14.2034 37.0473 14.1526C37.1086 14.1003 37.1565 14.0407 37.191 13.9723C37.2247 13.9047 37.2419 13.8328 37.242 13.7571C37.2421 13.672 37.2258 13.5971 37.1944 13.5331C37.1646 13.4676 37.1154 13.4043 37.0482 13.3438C36.9803 13.2841 36.8915 13.2215 36.7824 13.1574C36.6727 13.0918 36.5405 13.016 36.3852 12.93C36.1762 12.8156 36.0037 12.7129 35.8686 12.6211C35.7349 12.5301 35.6297 12.4427 35.5521 12.3589C35.4759 12.2738 35.4245 12.1886 35.3969 12.1028C35.3686 12.0177 35.3553 11.9216 35.3554 11.8147C35.3556 11.6925 35.3796 11.5777 35.4275 11.4686C35.4755 11.3581 35.5443 11.2615 35.6341 11.1779C35.7238 11.0951 35.8322 11.029 35.96 10.9805C36.0871 10.9304 36.2298 10.9051 36.3875 10.9053C36.4906 10.9054 36.5847 10.9164 36.6684 10.9376C36.7535 10.9573 36.8297 10.9799 36.8954 11.0047C36.9611 11.0302 37.0194 11.0528 37.0717 11.0718C37.1232 11.0915 37.168 11.101 37.2061 11.101C37.2457 11.1011 37.2794 11.088 37.3078 11.0604C37.3355 11.0314 37.3587 10.9805 37.3767 10.9063L37.4753 10.9064L37.474 12.105L37.3754 12.1049C37.3576 11.9419 37.3197 11.7986 37.2623 11.6742C37.2064 11.5505 37.134 11.4464 37.0445 11.3627C36.9564 11.2775 36.8571 11.2141 36.7458 11.1733C36.6338 11.131 36.5158 11.109 36.3903 11.1089C36.3043 11.1088 36.2236 11.1233 36.1481 11.1523C36.0719 11.1798 36.0061 11.2176 35.9508 11.2655C35.8947 11.3142 35.8498 11.3716 35.8161 11.437C35.7839 11.501 35.7681 11.5679 35.768 11.6377C35.768 11.7061 35.7806 11.7686 35.8067 11.8268C35.832 11.8836 35.8783 11.9418 35.944 12.0015C36.0111 12.062 36.1022 12.1268 36.2157 12.1967C36.3292 12.2667 36.4733 12.3476 36.6488 12.4387C36.8175 12.5283 36.9571 12.607 37.0669 12.6747C37.1781 12.741 37.2648 12.7964 37.3267 12.8408C37.4477 12.9282 37.5417 13.0352 37.6073 13.1611C37.6744 13.2856 37.7086 13.4187 37.7084 13.5598Z" fill="#FFF7F3"/>
<path d="M21.3536 8.34701C21.3535 8.43646 21.3392 8.52009 21.3115 8.59715C21.283 8.67494 21.2396 8.74253 21.1797 8.80065C21.1214 8.85877 21.0466 8.90524 20.9554 8.94005C20.8657 8.97341 20.7581 8.99075 20.6326 8.99207L20.0528 8.99727L20.0529 8.96237L20.1007 8.96242C20.1283 8.96245 20.1515 8.95811 20.1694 8.94794C20.1889 8.93851 20.2038 8.92616 20.2143 8.91017C20.2218 8.89854 20.227 8.88109 20.2293 8.85782C20.2308 8.83455 20.2324 8.80546 20.2324 8.77055L20.2243 7.95308C20.2244 7.87599 20.2163 7.82652 20.2006 7.80469C20.1864 7.79158 20.1707 7.78138 20.1528 7.77555C20.1349 7.76971 20.114 7.76678 20.0901 7.76675L20.0423 7.7667L20.0423 7.7347L20.5683 7.72944C20.64 7.72952 20.7043 7.73177 20.7625 7.73546C20.8201 7.73989 20.8716 7.74867 20.9179 7.76181C20.9657 7.7735 21.0075 7.78809 21.0434 7.80558C21.0807 7.82307 21.1158 7.84566 21.1479 7.8726C21.1778 7.89809 21.2054 7.92794 21.2315 7.96287C21.2568 7.99781 21.2777 8.03565 21.2941 8.0764C21.312 8.11569 21.3254 8.15788 21.3358 8.20444C21.3477 8.251 21.3536 8.29901 21.3536 8.34701ZM21.1354 8.3555C21.1333 8.26823 21.1191 8.19112 21.0938 8.12273C21.0677 8.05506 21.0312 7.99684 20.9834 7.94806C20.9372 7.90001 20.8819 7.86286 20.8162 7.83734C20.752 7.81254 20.6825 7.79938 20.6071 7.7993C20.5772 7.79927 20.5458 7.80142 20.5144 7.80502C20.4823 7.80935 20.4471 7.81658 20.4098 7.82818L20.4205 8.90457C20.4601 8.91043 20.4967 8.91629 20.5311 8.92214C20.5647 8.92654 20.5953 8.92803 20.6237 8.92806C20.6969 8.92814 20.7649 8.91585 20.827 8.89046C20.8905 8.86362 20.9451 8.82585 20.9915 8.77718C21.0371 8.72704 21.0723 8.66671 21.0963 8.59692C21.1218 8.52567 21.1353 8.44496 21.1354 8.3555Z" fill="#FFF7F3"/>
<path d="M22.7394 9.32136L22.7514 9.28937C22.7947 9.30251 22.8276 9.30545 22.85 9.2982C22.8717 9.29241 22.8866 9.28078 22.8949 9.26334C22.9024 9.24589 22.9069 9.22335 22.9069 9.19644C22.9084 9.17099 22.9077 9.14481 22.904 9.11789L22.8863 8.92005L22.4113 8.77118L22.2647 8.93685C22.2407 8.9601 22.2228 8.9819 22.2108 9.00079C22.1988 9.02042 22.1928 9.03859 22.1928 9.05605C22.1943 9.07132 22.2047 9.0866 22.2226 9.10262C22.2406 9.11792 22.2712 9.13468 22.3152 9.15218L22.3032 9.18417L21.9149 9.06157L21.9269 9.02958C21.9523 9.03543 21.9762 9.03691 21.9986 9.03257C22.0202 9.02895 22.0412 9.02098 22.0614 9.00936C22.083 8.99629 22.1047 8.97959 22.1272 8.95998C22.1511 8.93891 22.175 8.91493 22.199 8.88732L22.965 8.03285L22.9949 8.04161L23.0922 9.17918C23.0959 9.22573 23.1011 9.26428 23.107 9.29556C23.113 9.32612 23.1204 9.3494 23.1309 9.36541C23.1428 9.38288 23.1562 9.39744 23.1727 9.40909C23.1906 9.4222 23.2115 9.43386 23.2354 9.44407L23.2234 9.47605L22.7394 9.32136ZM22.8362 8.29744L22.4592 8.71596L22.8834 8.85023L22.8362 8.29744Z" fill="#FFF7F3"/>
<path d="M25.4889 9.47948C25.4687 9.46419 25.4478 9.45326 25.4262 9.44742C25.406 9.44158 25.3858 9.44374 25.3664 9.45317C25.344 9.46115 25.3111 9.49311 25.2677 9.54907L24.6182 10.4066L24.5883 10.3862L24.5211 9.06827L24.0452 9.69323C23.9973 9.755 23.9748 9.80079 23.9793 9.82989C23.9807 9.86262 24.0031 9.89391 24.0449 9.92305L24.0808 9.94927L24.0598 9.97834L23.6955 9.71613L23.7164 9.68706L23.7523 9.71328C23.7762 9.73076 23.7978 9.74097 23.818 9.74535C23.8374 9.75119 23.8576 9.75121 23.8778 9.74542C23.8897 9.73961 23.9032 9.72871 23.9196 9.71346C23.9376 9.69748 23.957 9.67568 23.9795 9.64661L24.5182 8.94026C24.516 8.93299 24.5152 8.92135 24.5153 8.90535C24.5168 8.8879 24.5161 8.86899 24.5123 8.84717C24.5079 8.82607 24.4989 8.80351 24.4855 8.78023C24.4714 8.75548 24.4497 8.73073 24.4199 8.70743L24.4408 8.68127L24.6946 8.86481L24.756 10.0838L25.199 9.49954C25.2484 9.43559 25.2708 9.39198 25.2649 9.3687C25.2627 9.33233 25.241 9.29885 25.1992 9.26972L25.1634 9.24641L25.1843 9.22025L25.5457 9.47954L25.5247 9.5057L25.4889 9.47948Z" fill="#FFF7F3"/>
<path d="M25.1561 10.9274L25.183 10.9071L25.2129 10.942C25.2285 10.961 25.2457 10.9755 25.2636 10.9857C25.283 10.9952 25.3025 11.0003 25.3204 11.0003C25.3443 11.0004 25.3869 10.9757 25.449 10.9277L26.11 10.4222C26.1257 10.4092 26.1399 10.3975 26.1519 10.3874C26.1654 10.3779 26.1766 10.3692 26.1848 10.3612C26.1945 10.354 26.2013 10.3467 26.2057 10.3409C26.2095 10.3336 26.2102 10.3263 26.2088 10.3205C26.2147 10.3016 26.2148 10.2813 26.2088 10.2594C26.2029 10.2383 26.1924 10.2187 26.179 10.2012L26.1492 10.1663L26.1731 10.1459L26.5163 10.5681L26.4924 10.5885L26.4655 10.5564C26.4334 10.5157 26.3968 10.4953 26.355 10.4952C26.343 10.4974 26.3258 10.5039 26.3042 10.5155C26.2817 10.5257 26.2563 10.5417 26.2264 10.5649L25.5654 11.0704C25.5332 11.0951 25.5093 11.1169 25.4936 11.1343C25.4771 11.1518 25.4674 11.1663 25.4636 11.1779C25.4614 11.1816 25.4606 11.1881 25.4606 11.1983C25.4621 11.2099 25.4651 11.2216 25.4696 11.2332C25.4733 11.2449 25.477 11.255 25.4815 11.2652C25.4852 11.2769 25.4912 11.2871 25.4994 11.2972L25.5262 11.3293L25.4993 11.3496L25.1561 10.9274Z" fill="#FFF7F3"/>
<path d="M26.2534 12.7313L25.845 11.8406L25.8779 11.8261L25.8958 11.864C25.8973 11.8698 25.9003 11.8763 25.9047 11.8843C25.9085 11.8916 25.9137 11.8996 25.9196 11.9076C25.9256 11.9149 25.9323 11.9222 25.9405 11.928C25.948 11.9353 25.9562 11.9411 25.9644 11.9455C25.9719 11.9469 25.9801 11.9491 25.9883 11.9513C25.9958 11.9528 26.0063 11.9528 26.0182 11.9514C26.0302 11.9492 26.0451 11.9441 26.0631 11.9369C26.0825 11.9311 26.1049 11.9231 26.1288 11.9137L26.9003 11.577C26.9376 11.5618 26.9675 11.5473 26.99 11.5335C27.0116 11.5182 27.0244 11.5066 27.0288 11.4986C27.0423 11.4659 27.0386 11.4252 27.017 11.3764L26.9991 11.3386L27.029 11.327L27.4375 12.2176L27.1863 12.3395L27.1684 12.3046C27.1841 12.293 27.1991 12.2821 27.2133 12.2726C27.229 12.2625 27.2432 12.2523 27.2551 12.2407C27.2671 12.2291 27.2761 12.2152 27.2821 12.2C27.2896 12.1862 27.2948 12.1694 27.2971 12.1505C27.3008 12.1331 27.3001 12.1113 27.2942 12.0865C27.2882 12.0611 27.277 12.032 27.2614 11.9992L27.1153 11.6791L26.6459 11.8822L26.7622 12.1383C26.78 12.1769 26.7964 12.206 26.8129 12.2257C26.8308 12.2468 26.8494 12.2592 26.8696 12.2635C26.889 12.2672 26.9099 12.2672 26.9324 12.2636C26.9563 12.2614 26.9847 12.2557 27.019 12.2462L27.034 12.2783L26.6213 12.4553L26.6064 12.4233C26.6341 12.4058 26.658 12.3891 26.6782 12.3739C26.6977 12.3601 26.7119 12.3448 26.7201 12.3274C26.7298 12.3099 26.7328 12.2881 26.7291 12.2634C26.7247 12.2379 26.7143 12.2059 26.6964 12.1674L26.5801 11.9112L26.1376 12.1028C26.1211 12.11 26.1084 12.1187 26.0987 12.1289C26.0882 12.1405 26.0837 12.1536 26.0837 12.1696C26.0837 12.1871 26.0897 12.2103 26.1016 12.2395L26.191 12.4316C26.2044 12.4643 26.2186 12.4912 26.2328 12.5131C26.2462 12.5342 26.2604 12.5538 26.2745 12.5713C26.2902 12.5887 26.3074 12.6011 26.3253 12.6091C26.3447 12.6186 26.3656 12.6266 26.388 12.6325C26.4119 12.6398 26.4388 12.6456 26.4687 12.65C26.5001 12.6559 26.5359 12.6596 26.5763 12.6618L26.5942 12.6967L26.2534 12.7313Z" fill="#FFF7F3"/>
<path d="M26.5845 14.3374L26.4541 13.3627L26.49 13.3569C26.4914 13.3839 26.4959 13.4093 26.5018 13.4326C26.5093 13.4559 26.5197 13.4741 26.5317 13.4879C26.5451 13.5032 26.563 13.5141 26.5854 13.52C26.6093 13.5258 26.6377 13.5258 26.6721 13.52L27.5688 13.4075C27.6061 13.4032 27.6353 13.396 27.6555 13.3844C27.6749 13.3727 27.6891 13.3582 27.6974 13.3408C27.7048 13.3233 27.7079 13.303 27.7064 13.2797C27.7064 13.2564 27.7049 13.2317 27.7035 13.204L27.7394 13.1983L27.8105 13.7423L27.7746 13.7481C27.7702 13.719 27.7657 13.6936 27.7597 13.6725C27.7538 13.6506 27.7448 13.6325 27.7329 13.6172C27.721 13.6033 27.7038 13.5939 27.6821 13.588C27.6597 13.5822 27.6298 13.5807 27.5925 13.585L26.7436 13.6918C26.7055 13.6975 26.6764 13.7041 26.6569 13.712C26.639 13.7215 26.6248 13.7331 26.6151 13.7469C26.6046 13.7622 26.6001 13.7789 26.6001 13.7963C26.6 13.8152 26.6015 13.84 26.6059 13.8691L26.6237 13.9942C26.6274 14.0327 26.6311 14.0655 26.6356 14.0931C26.6415 14.1222 26.6475 14.1462 26.6534 14.1659C26.6609 14.1848 26.6698 14.2015 26.6803 14.2153C26.69 14.2306 26.7019 14.2444 26.7161 14.2561C26.7318 14.2692 26.7467 14.2809 26.7609 14.2911C26.7743 14.3027 26.7907 14.3122 26.8087 14.3202C26.8266 14.3297 26.846 14.3377 26.8684 14.3435C26.8901 14.3508 26.917 14.3589 26.9491 14.3669L26.949 14.4047L26.5845 14.3374Z" fill="#FFF7F3"/>
<path d="M12.8763 16.6711C12.9406 16.6501 13.0033 16.6378 13.0646 16.6335C13.1266 16.6278 13.1864 16.63 13.2439 16.6395C13.2999 16.6498 13.3537 16.6658 13.4053 16.6891C13.4553 16.711 13.5023 16.7387 13.5456 16.7737C13.5874 16.8086 13.6247 16.8494 13.6561 16.896C13.6859 16.9425 13.7112 16.9935 13.7306 17.0473C13.7589 17.1288 13.7693 17.2103 13.7632 17.2917C13.7556 17.3732 13.7324 17.4502 13.6942 17.5215C13.6545 17.5912 13.6007 17.6545 13.5326 17.7104C13.4653 17.7663 13.3823 17.8099 13.2844 17.841C13.1932 17.87 13.1021 17.8823 13.0124 17.8786C12.9228 17.8741 12.8406 17.8537 12.7644 17.8172C12.689 17.7822 12.6233 17.7334 12.5674 17.6715C12.5099 17.6097 12.4659 17.5347 12.4361 17.4474C12.4182 17.3972 12.4086 17.3448 12.4064 17.2903C12.405 17.2365 12.411 17.1841 12.4245 17.1332C12.4365 17.083 12.456 17.0343 12.4815 16.9878C12.5054 16.9398 12.5376 16.8948 12.5772 16.8541C12.6154 16.8134 12.6603 16.7778 12.7118 16.7466C12.7619 16.7161 12.8165 16.6907 12.8763 16.6711ZM12.9717 16.8603C12.8761 16.8893 12.7946 16.9241 12.7265 16.9648C12.6593 17.004 12.6054 17.0483 12.565 17.0984C12.5254 17.1493 12.5006 17.2031 12.4901 17.2613C12.4803 17.318 12.4863 17.3791 12.5078 17.4446C12.5279 17.505 12.56 17.5544 12.6033 17.593C12.6451 17.6324 12.6974 17.66 12.7586 17.6776C12.8184 17.6936 12.8871 17.6981 12.9648 17.6923C13.041 17.6866 13.1225 17.6707 13.2099 17.6431C13.2981 17.6141 13.3744 17.5808 13.4402 17.5416C13.506 17.5009 13.5598 17.4566 13.6017 17.4079C13.6421 17.36 13.6676 17.3062 13.6796 17.248C13.6916 17.1898 13.6887 17.1309 13.6708 17.0705C13.6514 17.0145 13.6224 16.9657 13.5843 16.925C13.5447 16.8828 13.4962 16.8514 13.438 16.8317C13.3782 16.8128 13.311 16.8054 13.2348 16.8112C13.1571 16.8154 13.0696 16.8313 12.9717 16.8603Z" fill="#FFF7F3"/>
<path d="M13.0678 14.9741C13.1178 14.9727 13.1649 14.9815 13.2082 15.0004C13.2522 15.0179 13.2911 15.0441 13.3246 15.0791C13.359 15.1126 13.3858 15.1541 13.4052 15.2043C13.4246 15.253 13.4357 15.3061 13.4379 15.3643C13.4378 15.4072 13.4348 15.4458 13.4288 15.4807C13.4228 15.5156 13.416 15.5476 13.4078 15.5766C13.398 15.6043 13.389 15.6283 13.3808 15.6493C13.3733 15.6711 13.3688 15.6893 13.3688 15.7046C13.3688 15.7184 13.3747 15.7301 13.3867 15.7395C13.3986 15.7497 13.4188 15.7563 13.4464 15.76L13.4464 15.7949L13.0011 15.8031L13.0011 15.7682C13.0691 15.7588 13.1259 15.7422 13.1715 15.7189C13.2179 15.6943 13.2545 15.6652 13.2822 15.6318C13.3106 15.5969 13.3316 15.5584 13.3451 15.5155C13.3571 15.4733 13.3631 15.4297 13.3632 15.3846C13.3617 15.346 13.3543 15.3118 13.3424 15.2827C13.3304 15.2522 13.3148 15.226 13.2946 15.2041C13.2752 15.1809 13.2521 15.1648 13.2259 15.1546C13.2006 15.143 13.1737 15.1371 13.1453 15.1371C13.1139 15.137 13.0855 15.1428 13.0616 15.1544C13.0362 15.1661 13.013 15.1849 12.9928 15.2096C12.9711 15.2329 12.9479 15.2649 12.9239 15.3056C12.9 15.3448 12.8723 15.3921 12.8401 15.448C12.7982 15.5258 12.7615 15.589 12.7293 15.637C12.6956 15.6857 12.6635 15.7235 12.6335 15.7504C12.6021 15.778 12.57 15.7968 12.5378 15.8084C12.5065 15.8186 12.4706 15.8229 12.4302 15.8229C12.3847 15.825 12.3406 15.8184 12.2988 15.8024C12.2569 15.7871 12.2204 15.7637 12.1883 15.7324C12.1569 15.7019 12.1308 15.664 12.1107 15.6189C12.0913 15.5723 12.0802 15.5214 12.078 15.4647C12.078 15.4283 12.0826 15.3949 12.0901 15.3658C12.0961 15.3352 12.1043 15.3076 12.1141 15.2844C12.1223 15.2611 12.1305 15.2407 12.138 15.2233C12.144 15.2044 12.147 15.1877 12.1471 15.1738C12.1471 15.1586 12.1426 15.1462 12.1322 15.136C12.1202 15.1265 12.0993 15.1185 12.0694 15.1127L12.0695 15.0778L12.5207 15.0695L12.5207 15.1044C12.4609 15.1102 12.4086 15.1239 12.3623 15.145C12.3144 15.1667 12.2755 15.1936 12.2456 15.2263C12.2157 15.2575 12.194 15.2932 12.1798 15.3339C12.164 15.3746 12.1557 15.4182 12.1557 15.4648C12.1579 15.4939 12.1646 15.5222 12.1765 15.5491C12.187 15.5746 12.2019 15.5979 12.2213 15.619C12.2392 15.6387 12.2601 15.654 12.284 15.6656C12.3079 15.6758 12.334 15.6802 12.3617 15.6803C12.3856 15.6803 12.4087 15.6759 12.4304 15.6658C12.4528 15.6542 12.4745 15.6367 12.4962 15.6135C12.5187 15.5902 12.5426 15.5583 12.5681 15.5176C12.592 15.4754 12.6205 15.4231 12.6519 15.3606C12.6863 15.2988 12.7148 15.2486 12.7387 15.2094C12.7627 15.1687 12.7837 15.1381 12.8016 15.1163C12.8315 15.0698 12.8704 15.035 12.9183 15.0117C12.9646 14.9871 13.014 14.974 13.0678 14.9741Z" fill="#FFF7F3"/>
<path d="M13.4778 13.146C13.5255 13.1911 13.5643 13.2363 13.5942 13.2828C13.624 13.328 13.6456 13.3745 13.6598 13.4225C13.6732 13.4713 13.6806 13.5215 13.6805 13.5738C13.6805 13.6247 13.6722 13.6786 13.6564 13.7367C13.6384 13.8007 13.613 13.8574 13.5815 13.9054C13.5516 13.9541 13.5164 13.9969 13.4768 14.0333C13.4371 14.0703 13.393 14.1001 13.3452 14.1233C13.2958 14.1465 13.2435 14.1639 13.1897 14.1755C13.1359 14.1856 13.0806 14.1892 13.0223 14.187C12.9648 14.1854 12.908 14.1767 12.852 14.1606C12.7609 14.1372 12.6788 14.0993 12.6071 14.0469C12.5339 13.9944 12.4742 13.9333 12.428 13.8634C12.3825 13.7921 12.3527 13.7135 12.3386 13.6277C12.323 13.5404 12.3283 13.4502 12.3538 13.3572C12.3658 13.3106 12.3823 13.2721 12.4018 13.2408C12.422 13.2081 12.4407 13.1812 12.4587 13.1594C12.4751 13.1362 12.4908 13.118 12.5065 13.1042C12.5208 13.089 12.529 13.0766 12.5305 13.0664C12.5365 13.049 12.535 13.033 12.5246 13.017C12.5126 12.9995 12.4932 12.9835 12.4649 12.9674L12.4739 12.9355L12.9071 13.0174L12.9011 13.0494C12.8316 13.0537 12.7696 13.0623 12.7158 13.0753C12.6605 13.0891 12.6141 13.1094 12.5782 13.1363C12.5408 13.1617 12.5087 13.1937 12.4825 13.2322C12.457 13.2714 12.4368 13.3136 12.4226 13.3601C12.4046 13.4227 12.4008 13.4837 12.4104 13.5434C12.4186 13.6038 12.4424 13.6598 12.482 13.7122C12.5222 13.7632 12.5767 13.8098 12.6462 13.852C12.7164 13.8928 12.8037 13.9271 12.909 13.9541C12.9987 13.9797 13.0816 13.9907 13.1571 13.9864C13.2333 13.9828 13.3005 13.9676 13.3603 13.94C13.4186 13.9132 13.4665 13.8747 13.5069 13.8238C13.5466 13.7737 13.5765 13.7148 13.5968 13.6465C13.6065 13.6058 13.6125 13.5679 13.6148 13.533C13.6163 13.4967 13.6126 13.4596 13.603 13.4225C13.5926 13.3861 13.5747 13.3468 13.5493 13.3061C13.5255 13.2653 13.4911 13.218 13.4479 13.1634L13.4778 13.146Z" fill="#FFF7F3"/>
<path d="M14.4634 12.0184L14.4336 11.998C14.459 11.9617 14.4725 11.9326 14.4725 11.9108C14.4725 11.8875 14.4643 11.8693 14.4487 11.8555C14.4322 11.8424 14.4128 11.8321 14.3889 11.8263C14.365 11.819 14.3381 11.8132 14.3083 11.8088L14.1081 11.7736L13.8327 12.1806L13.958 12.3611C13.9744 12.3888 13.9893 12.4106 14.0057 12.4281C14.0214 12.4456 14.0371 12.4558 14.0535 12.4572C14.0714 12.4594 14.0901 12.4544 14.1103 12.4427C14.1297 12.4297 14.1537 12.4042 14.1821 12.3672L14.212 12.3876L13.9875 12.7219L13.9576 12.7015C13.9696 12.6782 13.9771 12.6564 13.9786 12.6346C13.9824 12.6113 13.9816 12.5895 13.9757 12.5677C13.9682 12.5444 13.9571 12.5204 13.9429 12.4949C13.9295 12.468 13.9116 12.4396 13.8892 12.4105L13.2477 11.4615L13.2657 11.4353L14.419 11.6489C14.4646 11.6547 14.5034 11.6599 14.5355 11.6635C14.5669 11.6679 14.5931 11.668 14.6132 11.6636C14.6327 11.6578 14.6506 11.6484 14.6671 11.6346C14.6828 11.6215 14.7 11.6041 14.7179 11.5823L14.7478 11.6027L14.4634 12.0184ZM13.4776 11.6508L13.7909 12.1166L14.0364 11.7561L13.4776 11.6508Z" fill="#FFF7F3"/>
<path d="M15.852 10.6588L15.1288 10.461C15.1146 10.4727 15.1027 10.4836 15.093 10.493C15.0833 10.501 15.0743 10.5076 15.0661 10.5134C15.0601 10.5192 15.0534 10.525 15.0452 10.5308C15.0377 10.5367 15.0295 10.5418 15.0212 10.5454L15.2573 10.8334C15.3089 10.896 15.347 10.928 15.3709 10.9294C15.4083 10.9396 15.4471 10.9287 15.4874 10.8974L15.5263 10.8683L15.5472 10.8945L15.1109 11.232L15.09 11.2058L15.1288 11.1767C15.1722 11.1418 15.1916 11.104 15.1856 11.0632C15.1811 11.0421 15.1565 11.0036 15.1109 10.9469L14.5879 10.3068C14.5386 10.2472 14.5005 10.2123 14.4744 10.2021C14.4549 10.2021 14.4355 10.205 14.4176 10.2108C14.3982 10.2152 14.3787 10.2246 14.3608 10.2399L14.3219 10.269L14.304 10.2457L14.6716 9.96063C14.7276 9.91845 14.7762 9.88208 14.818 9.85299C14.8599 9.8239 14.898 9.80353 14.9316 9.7919C14.9637 9.78026 14.9966 9.77372 15.0302 9.77153C15.0646 9.7679 15.0967 9.77008 15.1288 9.77735C15.1625 9.78535 15.1931 9.79772 15.2215 9.81517C15.2514 9.83263 15.2768 9.85517 15.2992 9.88208C15.3246 9.91336 15.344 9.94536 15.356 9.97809C15.3679 10.0115 15.3716 10.0472 15.3679 10.0857C15.3657 10.125 15.356 10.1643 15.338 10.205C15.3216 10.2457 15.2969 10.2879 15.2633 10.3301L15.6996 10.4552C15.7474 10.4668 15.7893 10.4756 15.8251 10.4814C15.8625 10.4858 15.8969 10.4865 15.9268 10.4843C15.9566 10.4828 15.9843 10.477 16.0104 10.4668C16.0381 10.4552 16.068 10.4399 16.1001 10.4203L16.121 10.4465L15.852 10.6588ZM15.1408 10.0246C15.1146 9.99409 15.087 9.96936 15.0571 9.95191C15.0257 9.93445 14.9929 9.92427 14.9585 9.9199C14.9249 9.91627 14.8912 9.9199 14.8569 9.93154C14.821 9.94172 14.7874 9.95918 14.7553 9.98391C14.7418 9.99409 14.7254 10.0086 14.7075 10.0275C14.688 10.045 14.6679 10.0646 14.6477 10.0857L14.9824 10.4988L15.0242 10.4668C15.0743 10.4283 15.1124 10.3897 15.1408 10.3505C15.1684 10.3097 15.1864 10.2712 15.1946 10.2341C15.2043 10.1956 15.2035 10.1585 15.1916 10.1236C15.1811 10.0886 15.1647 10.0559 15.1408 10.0246Z" fill="#FFF7F3"/>
</svg>
