<svg width="38" height="38" viewBox="0 0 38 38" fill="none" xmlns="http://www.w3.org/2000/svg">
<circle cx="19" cy="19" r="19" fill="#C3A5FF" fill-opacity="0.1"/>
<path d="M28 29H10V27H28V29ZM26 26H12L18.1 9.6C18.3 9.2 18.6 9 19 9L25 12H20.9L26 26ZM17 14.5L18.04 14.97L18.5 16L18.97 14.97L20 14.5L18.97 14.03L18.5 13L18.04 14.03L17 14.5ZM20 22L17.94 21.07L17 19L16.07 21.07L14 22L16.07 22.93L17 25L17.94 22.93L20 22ZM20.97 18.97L22 18.5L20.97 18.03L20.5 17L20.04 18.03L19 18.5L20.04 18.97L20.5 20L20.97 18.97ZM22.97 22.97L24 22.5L22.97 22.03L22.5 21L22.04 22.03L21 22.5L22.04 22.97L22.5 24L22.97 22.97Z" fill="#C3A5FF"/>
</svg>
